<svg id="Layer_1" data-name="Layer 1" xmlns="http://www.w3.org/2000/svg" viewBox="0 0 14.31 10.69"><g id="Layer_1-2" data-name="Layer_1"><circle cx="9.38" cy="5.75" r="4.93" style="fill:#5cbbf2"/><path d="M329.22,319.15a37.3,37.3,0,0,0,10.34,0" transform="translate(-328.93 -316.18)" style="fill:none;stroke:gray;stroke-miterlimit:10;stroke-width:0.5669291317462921px"/><path d="M338.63,319.27l-1.05-2.19a1.09,1.09,0,0,0-.88-.62h-4.65a1.09,1.09,0,0,0-.88.62l-1.05,2.19" transform="translate(-328.93 -316.18)" style="fill:none;stroke:gray;stroke-miterlimit:10;stroke-width:0.5669291317462921px"/><path d="M336.7,321.9h-4.65" transform="translate(-328.93 -316.18)" style="fill:none;stroke:gray;stroke-miterlimit:10;stroke-width:0.5669291317462921px"/><path d="M339.56,322.58a.63.63,0,0,1-.62.63h-9.1a.63.63,0,0,1-.62-.63" transform="translate(-328.93 -316.18)" style="fill:none;stroke:gray;stroke-miterlimit:10;stroke-width:0.5669291317462921px"/><circle cx="1.22" cy="5.02" r="0.94" style="fill:none;stroke:gray;stroke-miterlimit:10;stroke-width:0.5669291317462921px"/><circle cx="9.69" cy="5.02" r="0.94" style="fill:none;stroke:gray;stroke-miterlimit:10;stroke-width:0.5669291317462921px"/><line x1="2.55" y1="8.28" x2="1.02" y2="8.28" style="fill:none;stroke:gray;stroke-miterlimit:10;stroke-width:0.5669291317462921px"/><line x1="10.15" y1="8.28" x2="8.62" y2="8.28" style="fill:none;stroke:gray;stroke-miterlimit:10;stroke-width:0.5669291317462921px"/></g></svg>