<svg id="Layer_1" data-name="Layer 1" xmlns="http://www.w3.org/2000/svg" viewBox="0 0 12.9 11.03"><g id="Layer_1-2" data-name="Layer_1"><circle cx="7.97" cy="5.41" r="4.93" style="fill:#99d1ef"/><circle cx="7.97" cy="7.85" r="0.71" style="fill:none;stroke:gray;stroke-miterlimit:10;stroke-width:0.5669291317462921px"/><path d="M472.93,327.23h0s0,0,0-.06l-.93-1.92a1.61,1.61,0,0,1-.17-.71,1.48,1.48,0,1,1,2.95,0,2.17,2.17,0,0,1-.17.71l-.94,1.92s0,0,0,.06h0a.4.4,0,0,1-.34.2A.45.45,0,0,1,472.93,327.23Z" transform="translate(-465.31 -316.69)" style="fill:none;stroke:gray;stroke-miterlimit:10;stroke-width:0.5669291317462921px"/><path d="M469.25,318.44h3.65c2.24,0,2.21,3.72-.19,3.72h-5a1.86,1.86,0,0,0,0,3.71h3.66" transform="translate(-465.31 -316.69)" style="fill:none;stroke:gray;stroke-miterlimit:10;stroke-width:0.5669291317462921px"/><circle cx="1.79" cy="1.76" r="0.71" style="fill:none;stroke:gray;stroke-miterlimit:10;stroke-width:0.5669291317462921px"/><path d="M467.4,321.14h0s0,0,0-.06l.94-1.93a1.55,1.55,0,0,0,.17-.71,1.48,1.48,0,0,0-3,0,2.05,2.05,0,0,0,.17.71l.94,1.93s0,0,0,.06h0a.41.41,0,0,0,.34.2A.42.42,0,0,0,467.4,321.14Z" transform="translate(-465.31 -316.69)" style="fill:none;stroke:gray;stroke-miterlimit:10;stroke-width:0.5669291317462921px"/></g></svg>