<svg id="Layer_1" data-name="Layer 1" xmlns="http://www.w3.org/2000/svg" viewBox="0 0 11.71 10.23"><g id="Layer_1-2" data-name="Layer_1"><circle cx="6.77" cy="5.29" r="4.93" style="fill:#ff8178"/><polyline points="8.59 4.16 8.59 8.3 1.16 8.3 1.16 4.16" style="fill:none;stroke:gray;stroke-miterlimit:10;stroke-width:0.5669291317462921px"/><polyline points="7.46 4.16 9.5 4.16 9.5 2.43 5.41 2.43 5.41 4.16" style="fill:none;stroke:gray;stroke-miterlimit:10;stroke-width:0.5669291317462921px"/><path d="M540.17,318a.36.36,0,0,1,0-.17.55.55,0,0,1,1,0,.36.36,0,0,1,0,.17m2.83.6c1.53-2.36-1-2.89-2.78-.8m-4,.77c-1.51-2.3,1-2.92,2.77-.77" transform="translate(-535.8 -316.15)" style="fill:none;stroke:gray;stroke-miterlimit:10;stroke-width:0.5669291317462921px"/><polyline points="2.32 4.16 0.28 4.16 0.28 2.43 4.37 2.43 4.37 4.16" style="fill:none;stroke:gray;stroke-miterlimit:10;stroke-width:0.5669291317462921px"/></g></svg>