<svg id="Layer_1" data-name="Layer 1" xmlns="http://www.w3.org/2000/svg" viewBox="0 0 12.04 10.85"><g id="Layer_1-2" data-name="Layer_1"><circle cx="4.93" cy="5.92" r="4.93" style="fill:#99d1ef"/><line x1="4.59" y1="6.68" x2="7.63" y2="6.71" style="fill:none;stroke:gray;stroke-miterlimit:10;stroke-width:0.5000314768989256px"/><path d="M375.05,316.69v6.12c0,4.65-5.89,4.62-5.81.08" transform="translate(-363.26 -316.18)" style="fill:none;stroke:gray;stroke-miterlimit:10;stroke-width:0.5000314768989256px"/><path d="M367.29,316.43h4.13a2.4,2.4,0,0,1,2.41,2.41h0a2.4,2.4,0,0,1-2.41,2.41h-.93c-1.5-1.9-1-1.93-2.5,0h-.7a2.4,2.4,0,0,1-2.41-2.41h0A2.4,2.4,0,0,1,367.29,316.43Z" transform="translate(-363.26 -316.18)" style="fill:none;stroke:gray;stroke-miterlimit:10;stroke-width:0.5000314768989256px"/></g></svg>