<svg id="Layer_1" data-name="Layer 1" xmlns="http://www.w3.org/2000/svg" viewBox="0 0 4.97 3.61"><g id="Layer_1-2" data-name="Layer_1"><g id="_1717617706544" data-name=" 1717617706544"><path d="M290.66,242.73V241.2a.47.47,0,0,0-.48-.48h-3.77a.48.48,0,0,0-.48.48v1.53" transform="translate(-285.81 -239.12)" style="fill:none;stroke:#716f60;stroke-miterlimit:10;stroke-width:0.23981102381001307px"/><line x1="0.15" y1="2.93" x2="4.85" y2="2.93" style="fill:none;stroke:#716f60;stroke-miterlimit:10;stroke-width:0.23981102381001307px"/><path d="M288.09,240.72v-.54a.32.32,0,0,0-.32-.31h-.59a.31.31,0,0,0-.31.31v.54" transform="translate(-285.81 -239.12)" style="fill:none;stroke:#716f60;stroke-miterlimit:10;stroke-width:0.23981102381001307px"/><path d="M288.54,240.72v-.54a.31.31,0,0,1,.31-.31h.6a.31.31,0,0,1,.31.31v.54" transform="translate(-285.81 -239.12)" style="fill:none;stroke:#716f60;stroke-miterlimit:10;stroke-width:0.23981102381001307px"/><path d="M290.18,240.72v-.94a.56.56,0,0,0-.54-.54H287a.57.57,0,0,0-.54.54v.94" transform="translate(-285.81 -239.12)" style="fill:none;stroke:#716f60;stroke-miterlimit:10;stroke-width:0.23981102381001307px"/></g></g></svg>