<svg id="Layer_1" data-name="Layer 1" xmlns="http://www.w3.org/2000/svg" viewBox="0 0 13.32 10.99"><g id="Layer_1-2" data-name="Layer_1"><circle cx="8.39" cy="5.75" r="4.93" style="fill:#99d1ef"/><line y1="10.71" x2="13.27" y2="10.71" style="fill:none;stroke:gray;stroke-miterlimit:10;stroke-width:0.5000314768989256px"/><path d="M295.23,316.43h4.62a.94.94,0,0,1,.93.94v9.52h-6.46v-9.52a1,1,0,0,1,.94-.94Z" transform="translate(-292.37 -316.18)" style="fill:none;stroke:gray;stroke-miterlimit:10;stroke-width:0.5000314768989256px"/><path d="M300.76,319.07h2a.93.93,0,0,1,.93.93v6.92h-2.92V319.1Z" transform="translate(-292.37 -316.18)" style="fill:none;stroke:gray;stroke-miterlimit:10;stroke-width:0.5000314768989256px"/><line x1="3.71" y1="3.96" x2="6.6" y2="3.96" style="fill:none;stroke:gray;stroke-miterlimit:10;stroke-width:0.5000314768989256px"/><line x1="3.71" y1="5.58" x2="6.6" y2="5.58" style="fill:none;stroke:gray;stroke-miterlimit:10;stroke-width:0.5000314768989256px"/><polyline points="3.71 10.71 3.71 7.82 6.61 7.82 6.61 10.71" style="fill:none;stroke:gray;stroke-miterlimit:10;stroke-width:0.5000314768989256px"/><line x1="3.71" y1="2.49" x2="6.6" y2="2.49" style="fill:none;stroke:gray;stroke-miterlimit:10;stroke-width:0.5000314768989256px"/></g></svg>