<svg id="Layer_1" data-name="Layer 1" xmlns="http://www.w3.org/2000/svg" viewBox="0 0 2.31 6.02"><g id="Layer_1-2" data-name="Layer_1"><g id="_1717634521648" data-name=" 1717634521648"><path d="M464.85,240.09v1.31a.22.22,0,0,1-.22.23h0v1.84a.22.22,0,0,1-.23.22h0a.24.24,0,0,1-.23-.22l-.34-1.76-.34,1.76c0,.11-.08.22-.22.22h0a.22.22,0,0,1-.23-.22v-1.84h0a.23.23,0,0,1-.23-.23v-1.31c0-.31,0-.42.15-.53a1.49,1.49,0,0,1,.28-.23,2.78,2.78,0,0,0,.4-.26.61.61,0,0,1-.4-.56.6.6,0,1,1,1.19,0,.61.61,0,0,1-.4.56l.4.26a.84.84,0,0,1,.28.23c.12.11.15.22.15.53Z" transform="translate(-462.66 -237.79)" style="fill:none;stroke:#716f60;stroke-linejoin:round;stroke-width:0.23981102381001307px"/><path d="M463,241.63a.23.23,0,0,0,.23-.23v-1.16" transform="translate(-462.66 -237.79)" style="fill:none;stroke:#716f60;stroke-linejoin:round;stroke-width:0.23981102381001307px"/><path d="M464.4,240.24v1.16a.23.23,0,0,0,.23.23" transform="translate(-462.66 -237.79)" style="fill:none;stroke:#716f60;stroke-linejoin:round;stroke-width:0.23981102381001307px"/><circle cx="1.17" cy="0.74" r="0.6" style="fill:none;stroke:#716f60;stroke-linejoin:round;stroke-width:0.23981102381001307px"/></g></g></svg>