<svg id="Layer_1" data-name="Layer 1" xmlns="http://www.w3.org/2000/svg" viewBox="0 0 4.99 4.99"><g id="Layer_1-2" data-name="Layer_1"><path d="M506.86,429.79a.49.49,0,0,1-.48.48h-3.06a.49.49,0,0,1-.48-.48v-2h.73a1.21,1.21,0,0,1-.05.14,1.51,1.51,0,0,0-.06.37,1.36,1.36,0,0,0,2.72,0,2,2,0,0,0-.05-.37.25.25,0,0,0-.06-.14h.74v2Zm-2.72-2a.89.89,0,0,1,.71-.37.85.85,0,0,1,.71.37s0,.05.06.08a.81.81,0,0,1,.11.43.88.88,0,0,1-1.76,0,.68.68,0,0,1,.12-.43A.35.35,0,0,1,504.14,427.75Zm2.52-1.42h.12v.85h-.85v-.85Zm-.28-.57h-3.06a1,1,0,0,0-1,1v3.06a1,1,0,0,0,1,1h3.06a1,1,0,0,0,1-1v-3.06A1,1,0,0,0,506.38,425.76Z" transform="translate(-502.36 -425.76)" style="fill:#fefefe"/></g></svg>