<svg id="Layer_1" data-name="Layer 1" xmlns="http://www.w3.org/2000/svg" viewBox="0 0 6.49 6.49"><g id="Layer_1-2" data-name="Layer_1"><g id="_1717664861216" data-name=" 1717664861216"><polygon points="0.14 6.43 1.47 6.43 1.47 2.13 0.14 2.13 0.14 6.43" style="fill:#fefefe"/><path d="M493.85,429.76a.81.81,0,0,0,.8-.79.8.8,0,0,0-.8-.8.81.81,0,0,0-.79.8A.79.79,0,0,0,493.85,429.76Z" transform="translate(-493.06 -428.17)" style="fill:#fefefe"/><path d="M496.66,432.37c0-.6.28-1,.82-1s.74.34.74,1v2.27h1.33v-2.73a1.49,1.49,0,0,0-1.56-1.7,1.51,1.51,0,0,0-1.3.71v-.56h-1.28v4.3h1.28V432.4Z" transform="translate(-493.06 -428.17)" style="fill:#fefefe"/></g></g></svg>