<svg id="Layer_1" data-name="Layer 1" xmlns="http://www.w3.org/2000/svg" viewBox="0 0 4.99 6.45"><g id="Layer_1-2" data-name="Layer_1"><path d="M423.13,427.41a.15.15,0,0,0,.2-.09c0-.05.05-.22.08-.28s0-.11-.06-.2a1.11,1.11,0,0,1-.25-.74,1.76,1.76,0,0,1,1.81-1.78,1.37,1.37,0,0,1,1.53,1.42c0,1.07-.48,1.95-1.16,1.95a.57.57,0,0,1-.59-.71,8.42,8.42,0,0,0,.34-1.3.51.51,0,0,0-.51-.57c-.4,0-.71.4-.71,1a1.61,1.61,0,0,0,.11.59s-.4,1.73-.48,2a3.69,3.69,0,0,0,0,1.42,0,0,0,0,0,.08,0,4.27,4.27,0,0,0,.68-1.22c.06-.17.26-1,.26-1a1.07,1.07,0,0,0,.91.45c1.19,0,2-1.07,2-2.52a2.21,2.21,0,0,0-2.35-2.13,2.44,2.44,0,0,0-2.64,2.33,1.49,1.49,0,0,0,.77,1.42Z" transform="translate(-422.36 -423.69)" style="fill:#fefefe"/></g></svg>