<svg id="Layer_1" data-name="Layer 1" xmlns="http://www.w3.org/2000/svg" viewBox="0 0 8.06 7.77"><g id="Layer_1-2" data-name="Layer_1"><path d="M365,438.18l1.16-2.41c.09-.17.26-.17.34,0l1.11,2.47,2.46.22c.29,0,.37.17.14.4l-1.78,1.67.06.37c-.94,0-1.79,0-2.73-.11l2.61-1.82a12.64,12.64,0,0,0-4.25,0c1,0,2,.11,3,.23l-2.55,1.87a13.33,13.33,0,0,0,4.47-.17,1.64,1.64,0,0,1-.48.31c.12.65.23,1.3.31,2,0,.22-.11.25-.28.17L366.32,442l-2.24,1.31c-.2.11-.34.06-.28-.17l.42-2.58-1.84-1.7c-.2-.2-.08-.31.14-.34l2.44-.29Z" transform="translate(-362.28 -435.64)" style="fill:#fefefe;fill-rule:evenodd"/></g></svg>