<svg id="Layer_1" data-name="Layer 1" xmlns="http://www.w3.org/2000/svg" viewBox="0 0 9.31 7.71"><g id="Layer_1-2" data-name="Layer_1"><path d="M378.06,421.4c-2.1,0-3.86-1.08-4.09-2.44a2.91,2.91,0,0,1,0-.59,1,1,0,0,1-.45-.54,1,1,0,0,1,.09-.88,1,1,0,0,1,.9-.51h0a1,1,0,0,1,.71.28,6,6,0,0,1,.8-.4,5.59,5.59,0,0,1,2-.36l.71-2.13.14,0h0l1.62.37a.87.87,0,1,1-.06.34l-1.47-.34-.57,1.73a5.29,5.29,0,0,1,2.63.76,1.13,1.13,0,0,1,.71-.28h0a1,1,0,0,1,.51,1.95,1,1,0,0,1,0,.29c0,1.5-1.84,2.75-4.11,2.75h0Zm1.41-3.89a.66.66,0,0,0-.65.66.64.64,0,0,0,1.28,0A.67.67,0,0,0,379.47,417.51Zm-2.77,0a.67.67,0,0,0-.66.66.64.64,0,0,0,.66.62.62.62,0,0,0,.62-.62A.66.66,0,0,0,376.7,417.51Zm-2.24,1.88a4,4,0,0,0,3.6,1.67c2.07,0,3.77-1.08,3.77-2.41a2.13,2.13,0,0,0-1.19-1.73,5.52,5.52,0,0,0-4.71-.23,2.78,2.78,0,0,0-1.53,1.39,1.67,1.67,0,0,0,.06,1.33Zm.42-2.56a3,3,0,0,0-.85,1.11.74.74,0,0,1-.28-.57h0a.71.71,0,0,1,.71-.71h0a.8.8,0,0,1,.42.15h0Zm6.35,0a2.86,2.86,0,0,1,.85,1.11.69.69,0,0,0-.42-1.25h0a.88.88,0,0,0-.43.14Zm0-2.8a.51.51,0,0,0,0,1,.51.51,0,1,0,0-1Zm-3.11,6.38a2,2,0,0,1-1.48-.46.2.2,0,0,1-.06-.11.18.18,0,0,1,.17-.17.16.16,0,0,1,.12.06,2.33,2.33,0,0,0,2.49,0,.23.23,0,0,1,.12-.06.18.18,0,0,1,.17.17.14.14,0,0,1-.06.11,2,2,0,0,1-1.47.46Z" transform="translate(-373.45 -413.72)" style="fill:#fefefe;fill-rule:evenodd"/></g></svg>