<svg id="Layer_1" data-name="Layer 1" xmlns="http://www.w3.org/2000/svg" viewBox="0 0 8.9 7.22"><g id="Layer_1-2" data-name="Layer_1"><g id="_1717788988224" data-name=" 1717788988224"><path d="M351.58,429.31c-1.47.14-2.75-.51-2.86-1.51s1-1.87,2.49-2,2.75.51,2.87,1.5-1,1.88-2.5,2Zm2.95-3.23c-.11,0-.2-.06-.14-.23.14-.37.17-.68,0-.88-.29-.43-1.08-.4-2,0,0,0-.28.11-.22-.11a1.08,1.08,0,0,0-.09-1.05c-.48-.48-1.81,0-2.92,1.13a3.83,3.83,0,0,0-1.33,2.5c0,1.47,1.9,2.38,3.74,2.38,2.44,0,4.05-1.42,4.05-2.53a1.34,1.34,0,0,0-1.07-1.21h0Zm0,0Z" transform="translate(-347.84 -422.59)" style="fill:#fefefe;fill-rule:evenodd"/><path d="M356.17,423.38a2.35,2.35,0,0,0-2.24-.73h0a.33.33,0,0,0-.28.34.33.33,0,0,0,.34.34h.09a1.63,1.63,0,0,1,1.58.51,1.61,1.61,0,0,1,.43,1.13,1.52,1.52,0,0,1-.09.51h0s0,.06,0,.11a.32.32,0,0,0,.23.32l.11,0a.31.31,0,0,0,.32-.22h0a2.44,2.44,0,0,0-.49-2.33h0Zm0,0Z" transform="translate(-347.84 -422.59)" style="fill:#fefefe;fill-rule:evenodd"/><path d="M355.27,424.18a1.23,1.23,0,0,0-1.11-.37.3.3,0,0,0-.25.28.28.28,0,0,0,.28.28h.17a.5.5,0,0,1,.42.2.6.6,0,0,1,.15.37.32.32,0,0,1,0,.17h0s0,.06,0,.09a.27.27,0,0,0,.2.28s.05,0,.08,0a.3.3,0,0,0,.29-.2,1.2,1.2,0,0,0-.23-1.13h.06Zm0,0Z" transform="translate(-347.84 -422.59)" style="fill:#fefefe;fill-rule:evenodd"/><path d="M351.67,427.55a.2.2,0,0,1-.26.08.15.15,0,0,1-.06-.22.2.2,0,0,1,.26-.09.18.18,0,0,1,.08.23Zm-.49.59a.54.54,0,0,1-.68.23.4.4,0,0,1-.14-.59.57.57,0,0,1,.68-.23.39.39,0,0,1,.17.59h0Zm.54-1.61a1.64,1.64,0,0,0-1.81.79,1.1,1.1,0,0,0,.71,1.56,1.57,1.57,0,0,0,1.9-.82A1.09,1.09,0,0,0,351.72,426.53Z" transform="translate(-347.84 -422.59)" style="fill:#fefefe;fill-rule:evenodd"/></g></g></svg>