<svg id="Layer_1" data-name="Layer 1" xmlns="http://www.w3.org/2000/svg" viewBox="0 0 7.1 6.63"><g id="Layer_1-2" data-name="Layer_1"><path d="M425.51,442.35h0a1.18,1.18,0,0,0-.23-.09h0a2,2,0,0,1-.93-.68A1.55,1.55,0,0,1,424,441h0a.41.41,0,0,1,0-.22h0a.84.84,0,0,1,.32-.2h0a1.15,1.15,0,0,0,.42-.23h0s.06,0,.06-.08v-.14h0c0-.09-.12-.12-.14-.15h0a.3.3,0,0,0-.26,0h0a1.2,1.2,0,0,1-.23,0h0a.36.36,0,0,1-.25,0v0h0v-.49h0a3.23,3.23,0,0,0,0-.76h0a1.69,1.69,0,0,0-.74-1.08,1.62,1.62,0,0,0-.9-.31H422a1.87,1.87,0,0,0-1.22.4,2.11,2.11,0,0,0-.6.76h0a2.18,2.18,0,0,0-.08.94h0c0,.22,0,.42,0,.62h0a1.06,1.06,0,0,1-.31,0h0a.6.6,0,0,1-.22-.06h0a.24.24,0,0,0-.23.06h0a.2.2,0,0,0-.11.2v0h0a.25.25,0,0,0,.08.14s.06.06.09.06h0a2,2,0,0,0,.48.19h0c.11.06.2.12.22.2a.55.55,0,0,1-.08.37h0a2.09,2.09,0,0,1-.74.82,1.8,1.8,0,0,1-.54.26h0s-.14,0-.19.11v0a.13.13,0,0,0,0,.14s.06.06.09.06h0a2.33,2.33,0,0,0,.48.17h0a1.27,1.27,0,0,1,.31.08.23.23,0,0,0,0,.09c0,.08.06.2.09.31a.06.06,0,0,0,.05.06c.09,0,.12,0,.12,0h0a1.75,1.75,0,0,1,.79,0h0a3.18,3.18,0,0,1,.74.4h0a1.45,1.45,0,0,0,.59.22h.51a.65.65,0,0,0,.4-.14h0c.25-.14.51-.34.76-.45h0a1.06,1.06,0,0,1,.32,0h0a4.79,4.79,0,0,1,.65,0h0s.05,0,.08,0,0,0,0-.06h0v0a.78.78,0,0,1,.11-.31.22.22,0,0,1,.15,0h0a2.13,2.13,0,0,0,.51-.14h0a.46.46,0,0,0,.19-.14h0a.13.13,0,0,0,0-.2h0Z" transform="translate(-418.52 -437.33)" style="fill:#fff;fill-rule:evenodd"/></g></svg>