<svg id="Layer_1" data-name="Layer 1" xmlns="http://www.w3.org/2000/svg" viewBox="0 0 7 6.38"><g id="Layer_1-2" data-name="Layer_1"><g id="_1717589378720" data-name=" 1717589378720"><path d="M454.31,141.39a2.52,2.52,0,0,0,1.36-1.08c.08-.14.17-.28.25-.45m0-2.24a2.76,2.76,0,0,0-2.5-1.59,2.7,2.7,0,0,0-2.46,1.56" transform="translate(-449.89 -135.75)" style="fill:none;stroke:#adab9d;stroke-miterlimit:10;stroke-width:0.5669291317462921px"/><path d="M455.87,140h.22a.5.5,0,0,0,.51-.51v-1.33a.51.51,0,0,0-.51-.51h-.22Z" transform="translate(-449.89 -135.75)" style="fill:none;stroke:#adab9d;stroke-miterlimit:10;stroke-width:0.5669291317462921px"/><path d="M450.91,140h-.23a.51.51,0,0,1-.51-.51v-1.33a.51.51,0,0,1,.51-.51h.23" transform="translate(-449.89 -135.75)" style="fill:none;stroke:#adab9d;stroke-miterlimit:10;stroke-width:0.5669291317462921px"/><line x1="1.02" y1="4.51" x2="1.02" y2="1.73" style="fill:none;stroke:#adab9d;stroke-miterlimit:10;stroke-width:0.5669291317462921px"/><rect x="2.69" y="5.22" width="1.64" height="0.88" style="fill:none;stroke:#adab9d;stroke-miterlimit:10;stroke-width:0.5669291317462921px"/></g></g></svg>