<svg id="Layer_1" data-name="Layer 1" xmlns="http://www.w3.org/2000/svg" viewBox="0 0 5.95 4.93"><g id="Layer_1-2" data-name="Layer_1"><path d="M522.74,425.91s2.63-1.08,3.54-1.48l1.53-.65s.54-.23.51.31c0,.23-.14,1-.25,1.76-.17,1.13-.37,2.38-.37,2.38s0,.34-.29.43-.68-.23-.76-.29-1.14-.74-1.53-1.08c-.12-.08-.23-.28,0-.48.54-.51,1.19-1.13,1.58-1.53.17-.17.37-.59-.39-.08-1.08.73-2.16,1.44-2.16,1.44a1,1,0,0,1-.71,0l-1-.31s-.37-.23.26-.48h0Z" transform="translate(-522.37 -423.73)" style="fill:#fefefe;fill-rule:evenodd"/></g></svg>