<svg id="Layer_1" data-name="Layer 1" xmlns="http://www.w3.org/2000/svg" viewBox="0 0 19.33 10.94"><g id="Layer_1-2" data-name="Layer_1"><circle cx="14.4" cy="5.95" r="4.93" style="fill:#99d1ef"/><path d="M434.32,325.19h-2a1.15,1.15,0,0,1-1.16-1.16v-6.44a1.15,1.15,0,0,1,1.16-1.16h10.26a1.57,1.57,0,0,1,1.48.74l2,2.92a2.3,2.3,0,0,1,.49,1.7V324a1.18,1.18,0,0,1-1.17,1.16m-1.67,0h-7.71" transform="translate(-430.84 -316.15)" style="fill:none;stroke:gray;stroke-miterlimit:10;stroke-width:0.5669291317462921px"/><path d="M434.32,323.57a1.62,1.62,0,1,1-1.61,1.62" transform="translate(-430.84 -316.15)" style="fill:none;stroke:gray;stroke-miterlimit:10;stroke-width:0.5669291317462921px"/><line x1="6.21" y1="7.43" x2="10.89" y2="7.43" style="fill:none;stroke:gray;stroke-miterlimit:10;stroke-width:0.5669291317462921px"/><polyline points="4.28 1.56 4.28 4.25 1.59 4.25" style="fill:none;stroke:gray;stroke-miterlimit:10;stroke-width:0.5669291317462921px"/><polyline points="8.31 1.56 8.31 4.25 5.61 4.25" style="fill:none;stroke:gray;stroke-miterlimit:10;stroke-width:0.5669291317462921px"/><line x1="13.69" y1="4.25" x2="9.64" y2="4.25" style="fill:none;stroke:gray;stroke-miterlimit:10;stroke-width:0.5669291317462921px"/><path d="M443.65,323.57a1.62,1.62,0,1,1-1.62,1.62" transform="translate(-430.84 -316.15)" style="fill:none;stroke:gray;stroke-miterlimit:10;stroke-width:0.5669291317462921px"/></g></svg>