<svg id="Layer_1" data-name="Layer 1" xmlns="http://www.w3.org/2000/svg" viewBox="0 0 6.41 5.24"><g id="Layer_1-2" data-name="Layer_1"><path d="M483.53,414.68v.17a3.74,3.74,0,0,1-3.77,3.77,4,4,0,0,1-2-.59l.31,0a2.55,2.55,0,0,0,1.65-.56,1.35,1.35,0,0,1-1.25-.91.77.77,0,0,0,.26,0,1.43,1.43,0,0,0,.34-.06,1.33,1.33,0,0,1-1.08-1.3v0a1.15,1.15,0,0,0,.59.17,1.32,1.32,0,0,1-.59-1.11,1.21,1.21,0,0,1,.17-.65,3.8,3.8,0,0,0,2.72,1.39,1,1,0,0,1,0-.31,1.33,1.33,0,0,1,1.33-1.33,1.36,1.36,0,0,1,1,.42,3,3,0,0,0,.85-.31,1.37,1.37,0,0,1-.6.74,3.78,3.78,0,0,0,.77-.2,2.63,2.63,0,0,1-.65.68Z" transform="translate(-477.72 -413.38)" style="fill:#fff;fill-rule:evenodd"/></g></svg>