<svg id="Layer_1" data-name="Layer 1" xmlns="http://www.w3.org/2000/svg" viewBox="0 0 6.55 6.55"><g id="Layer_1-2" data-name="Layer_1"><g id="_1717707888192" data-name=" 1717707888192"><path d="M417.69,432.51a2.72,2.72,0,0,1-1.48-.45l-1,.34.34-1a2.76,2.76,0,0,1-.51-1.55v-.26a2.71,2.71,0,0,1,5.39.06v.2a2.71,2.71,0,0,1-2.69,2.69Zm3.2-2.75a3.21,3.21,0,0,0-6.41-.06v.15a3.19,3.19,0,0,0,.46,1.64l-.57,1.7,1.78-.57a3.22,3.22,0,0,0,4.77-2.8v-.09Z" transform="translate(-414.37 -426.64)" style="fill:#fff;fill-rule:evenodd"/><path d="M419.16,430.47c-.09,0-.45-.23-.54-.26a.15.15,0,0,0-.17,0,3,3,0,0,1-.25.31c-.06.06-.09.06-.17,0a1.57,1.57,0,0,1-.63-.39,1.61,1.61,0,0,1-.42-.54c-.06-.09,0-.12,0-.17a.87.87,0,0,0,.12-.14l0,0s0-.06.05-.09,0-.08,0-.14-.17-.42-.25-.57-.14-.14-.17-.14h-.14a.28.28,0,0,0-.2.09.78.78,0,0,0-.29.65c0,.08,0,.17,0,.25a1.62,1.62,0,0,0,.29.54,2.94,2.94,0,0,0,1.33,1.19c.79.31.79.2.93.2a.83.83,0,0,0,.54-.37,1.17,1.17,0,0,0,.06-.37l-.14-.08Z" transform="translate(-414.37 -426.64)" style="fill:#fff;fill-rule:evenodd"/></g></g></svg>