<svg id="Layer_1" data-name="Layer 1" xmlns="http://www.w3.org/2000/svg" viewBox="0 0 6.86 5.08"><g id="Layer_1-2" data-name="Layer_1"><path d="M501.51,415.39a1.45,1.45,0,0,0-.29-.71,1,1,0,0,0-.68-.31,34.81,34.81,0,0,0-4.79,0,1,1,0,0,0-.68.31,1.78,1.78,0,0,0-.28.71s-.06.57-.06,1.16v.54c0,.57.06,1.16.06,1.16a1.4,1.4,0,0,0,.28.71,1.17,1.17,0,0,0,.77.31,32.47,32.47,0,0,0,4.73,0,1,1,0,0,0,.68-.31,1.78,1.78,0,0,0,.28-.71s.06-.56.06-1.16v-.57c0-.56-.06-1.16-.06-1.16Zm-4.14,2.35v-2.15l2.09,1.13-2.09,1.14v-.12Z" transform="translate(-494.73 -414.28)" style="fill:#fefefe;fill-rule:evenodd"/></g></svg>