<svg id="Layer_1" data-name="Layer 1" xmlns="http://www.w3.org/2000/svg" viewBox="0 0 4.82 3.23"><title>autos</title><g id="Layer_1-2" data-name="Layer_1"><g id="_1713091518464" data-name=" 1713091518464"><path d="M5.19,7.51a.19.19,0,0,0,.11,0,.16.16,0,0,0,.06-.12.2.2,0,0,0-.06-.11s-.06,0-.11,0a.18.18,0,0,0-.12,0A.27.27,0,0,0,5,7.34a.19.19,0,0,0,.05.12A.31.31,0,0,0,5.19,7.51Zm.37.2a.48.48,0,0,1-.37.17.47.47,0,0,1-.37-.17.51.51,0,0,1-.14-.37A.59.59,0,0,1,4.82,7a.56.56,0,0,1,.37-.14A.58.58,0,0,1,5.56,7a.53.53,0,0,1,.17.37A.47.47,0,0,1,5.56,7.71Z" transform="translate(-4.68 -5.47)" style="fill:#e02418"/><polygon points="1.39 3.23 0.82 3.23 0.82 2.89 1.39 2.89 1.39 3.23" style="fill:#adab9d"/><polygon points="4.11 3.23 3.57 3.23 3.57 2.89 4.11 2.89 4.11 3.23" style="fill:#adab9d"/><path d="M4.9,6.8A.29.29,0,0,1,5,6.55H5a.29.29,0,0,1,.25-.12H8.84a.31.31,0,0,1,.26.12h0a.38.38,0,0,1,.11.25H4.9ZM9.21,7.88a.37.37,0,0,1-.11.26h0a.37.37,0,0,1-.26.11H5.27A.31.31,0,0,1,5,8.14H5a.29.29,0,0,1-.12-.26h.37v0H8.84v0h.37Z" transform="translate(-4.68 -5.47)" style="fill:#adab9d"/><path d="M5.81,6.43h2.5L8,5.81H6.09Zm2.75.37H5.24l.12-.25.48-1,0-.09H8.22l.06.09.45,1,.11.25Z" transform="translate(-4.68 -5.47)" style="fill:#adab9d"/><polygon points="3.17 2.3 1.56 2.3 1.56 1.93 3.17 1.93 3.17 2.3" style="fill:#adab9d"/><path d="M9,7.51l.11,0a.16.16,0,0,0,.06-.12.2.2,0,0,0-.06-.11A.17.17,0,0,0,9,7.2c-.06,0-.09,0-.12,0a.18.18,0,0,0,0,.11.15.15,0,0,0,0,.12A.19.19,0,0,0,9,7.51Zm.36.2A.45.45,0,0,1,9,7.88a.45.45,0,0,1-.37-.17.44.44,0,0,1-.17-.37A.49.49,0,0,1,8.62,7,.54.54,0,0,1,9,6.83.53.53,0,0,1,9.35,7a.6.6,0,0,1,.15.37A.52.52,0,0,1,9.35,7.71Z" transform="translate(-4.68 -5.47)" style="fill:#e02418"/></g></g></svg>