<svg id="Layer_1" data-name="Layer 1" xmlns="http://www.w3.org/2000/svg" viewBox="0 0 14.34 10.71"><title>autos carusel</title><g id="Layer_1-2" data-name="Layer_1"><g id="_1713003550048" data-name=" 1713003550048"><path d="M10.71,4A4.93,4.93,0,1,1,5.78,8.93,4.95,4.95,0,0,1,10.71,4Z" transform="translate(-1.33 -3.15)" style="fill:#5cbbf2;fill-rule:evenodd"/><path d="M1.67,5.84a35.65,35.65,0,0,0,5.13.37,35.23,35.23,0,0,0,5.13-.37l.09.57a38.44,38.44,0,0,1-5.22.36,38.41,38.41,0,0,1-5.21-.36Z" transform="translate(-1.33 -3.15)" style="fill:gray"/><path d="M10.8,6.38,9.75,4.2h0c0-.06-.23-.49-.62-.49H4.48c-.37,0-.6.43-.62.49h0l-1,2.18L2.3,6.15l1-2.21h0a1.39,1.39,0,0,1,1.14-.79H9.13a1.39,1.39,0,0,1,1.13.79h0l1.05,2.21Z" transform="translate(-1.33 -3.15)" style="fill:gray"/><polygon points="7.79 6.01 3.15 6.01 3.15 5.44 7.79 5.44 7.79 6.01" style="fill:gray"/><path d="M12.27,9.55a.91.91,0,0,1-.28.65h0a.89.89,0,0,1-.62.26H2.27a.89.89,0,0,1-.65-.26h0a.92.92,0,0,1-.29-.65H1.9A.58.58,0,0,0,2,9.81H2a.38.38,0,0,0,.26.08h9.1a.33.33,0,0,0,.22-.08h0a.51.51,0,0,0,.12-.26Z" transform="translate(-1.33 -3.15)" style="fill:gray"/><path d="M2.58,8.84a.8.8,0,0,0,.48-.19.77.77,0,0,0,.17-.49.78.78,0,0,0-.17-.48.78.78,0,0,0-.48-.17.72.72,0,0,0-.48.17.76.76,0,0,0-.2.48.74.74,0,0,0,.2.49A.74.74,0,0,0,2.58,8.84Zm.88.2A1.23,1.23,0,0,1,1.7,9a1.22,1.22,0,0,1-.37-.88,1.2,1.2,0,0,1,.37-.87,1.22,1.22,0,0,1,.88-.35,1.22,1.22,0,0,1,.88.35,1.18,1.18,0,0,1,.34.87A1.2,1.2,0,0,1,3.46,9Z" transform="translate(-1.33 -3.15)" style="fill:gray"/><path d="M11,8.84a.68.68,0,0,0,.48-.19.8.8,0,0,0,.2-.49.82.82,0,0,0-.2-.48A.67.67,0,0,0,11,7.51a.69.69,0,0,0-.46.17.67.67,0,0,0-.2.48.66.66,0,0,0,.2.49A.71.71,0,0,0,11,8.84Zm.88.2a1.24,1.24,0,0,1-.88.37A1.11,1.11,0,0,1,10.18,9a1.22,1.22,0,0,1-.37-.88,1.2,1.2,0,0,1,.37-.87A1.09,1.09,0,0,1,11,6.94a1.21,1.21,0,0,1,1.24,1.22A1.26,1.26,0,0,1,11.91,9Z" transform="translate(-1.33 -3.15)" style="fill:gray"/><polygon points="2.58 8.59 1.05 8.59 1.05 8.02 2.58 8.02 2.58 8.59" style="fill:gray"/><polygon points="10.15 8.59 8.62 8.59 8.62 8.02 10.15 8.02 10.15 8.59" style="fill:gray"/></g></g></svg>