<svg id="Layer_1" data-name="Layer 1" xmlns="http://www.w3.org/2000/svg" viewBox="0 0 12.87 11"><title>circuitos carrusel</title><g id="Layer_1-2" data-name="Layer_1"><g id="_1713105901664" data-name=" 1713105901664"><path d="M12.84,3.49a4.93,4.93,0,1,1-5,4.93A4.93,4.93,0,0,1,12.84,3.49Z" transform="translate(-4.9 -3)" style="fill:#99d1ef;fill-rule:evenodd"/><path d="M12.25,13.63h0v0l-.94-1.93a3.17,3.17,0,0,1-.14-.4h0a2,2,0,0,1-.06-.42,1.78,1.78,0,0,1,.51-1.25h0a1.81,1.81,0,0,1,1.25-.51,1.72,1.72,0,0,1,1.22.51h0a1.78,1.78,0,0,1,.51,1.25,1,1,0,0,1-.06.42h0a1.59,1.59,0,0,1-.14.4l-.93,1.93v0h0v.06h0a.56.56,0,0,1-.23.23.62.62,0,0,1-.31.08.68.68,0,0,1-.34-.08.62.62,0,0,1-.25-.23v-.06Zm.51-.25v0s0,0,0,0h.09a0,0,0,0,0,0,0l0,0h0v0l.93-1.93a.75.75,0,0,0,.11-.28h0a.89.89,0,0,0,0-.28,1.09,1.09,0,0,0-.34-.85h0a1.08,1.08,0,0,0-.82-.34A1.15,1.15,0,0,0,12,10h0a1.2,1.2,0,0,0-.34.85.89.89,0,0,0,0,.28h0c0,.09.08.2.11.28l.94,1.93v0Zm-.54.23Zm1.22,0Z" transform="translate(-4.9 -3)" style="fill:gray"/><path d="M8.82,4.45h3.65A1.81,1.81,0,0,1,14.26,5.7a3.09,3.09,0,0,1,.14.85,2.42,2.42,0,0,1-.17.88,2,2,0,0,1-2,1.33h-5a1.49,1.49,0,0,0-1.45.91,2,2,0,0,0-.11.68,1.89,1.89,0,0,0,.11.65h0a1.49,1.49,0,0,0,1.45.91h3.66v.56H7.23a2,2,0,0,1-2-1.27h0a2.38,2.38,0,0,1-.17-.85,2.34,2.34,0,0,1,.17-.88,2,2,0,0,1,2-1.28h5a1.51,1.51,0,0,0,1.45-1,2.06,2.06,0,0,0,.11-.68,1.71,1.71,0,0,0-.11-.65A1.27,1.27,0,0,0,12.47,5H8.82Z" transform="translate(-4.9 -3)" style="fill:gray"/><path d="M6.66,4.42a.33.33,0,0,0-.23.09h0a.32.32,0,0,0,0,.48h0a.32.32,0,0,0,.23.08A.31.31,0,0,0,6.89,5,.38.38,0,0,0,7,4.76a.37.37,0,0,0-.11-.25h0A.32.32,0,0,0,6.66,4.42ZM6.12,4.2A.69.69,0,0,1,6.66,4a.74.74,0,0,1,.54.23h0a.79.79,0,0,1,.23.56.79.79,0,0,1-.77.77.73.73,0,0,1-.54-.23h0a.77.77,0,0,1-.22-.54.79.79,0,0,1,.22-.56Z" transform="translate(-4.9 -3)" style="fill:gray"/><path d="M6.75,7.31v0h0v0l.93-1.93a1.31,1.31,0,0,0,.12-.28h0a1.47,1.47,0,0,0,0-.29,1.17,1.17,0,0,0-.37-.85h0a1.05,1.05,0,0,0-.82-.34,1.19,1.19,0,0,0-.85.34h0a1.28,1.28,0,0,0-.34.85,1,1,0,0,0,.06.29h0a1.24,1.24,0,0,0,.11.28l.94,1.93v0h0v0l0,0h.12Zm.51.23,0,0h0v0A.8.8,0,0,1,7,7.82a.65.65,0,0,1-.88-.19h0V7.57l0,0h0v0h0L5.13,5.58A3.29,3.29,0,0,1,5,5.19H5a2.12,2.12,0,0,1-.06-.43,1.81,1.81,0,0,1,.51-1.25h0A1.81,1.81,0,0,1,6.66,3a1.85,1.85,0,0,1,1.25.51h0a1.81,1.81,0,0,1,.51,1.25,2.12,2.12,0,0,1-.06.43h0c0,.14-.11.25-.17.39L7.26,7.51h0v0Z" transform="translate(-4.9 -3)" style="fill:gray"/><path d="M12.84,10.52a.32.32,0,0,0-.25.08h0a.34.34,0,0,0-.09.26.29.29,0,0,0,.09.22h0a.36.36,0,0,0,.48,0,.33.33,0,0,0,.08-.22.38.38,0,0,0-.08-.26h0A.31.31,0,0,0,12.84,10.52Zm-.57-.23a.82.82,0,0,1,.57-.23.78.78,0,0,1,.54.23h0a.78.78,0,0,1,0,1.11.77.77,0,0,1-.54.22.81.81,0,0,1-.57-.22h0a1,1,0,0,1-.22-.54.94.94,0,0,1,.22-.57Z" transform="translate(-4.9 -3)" style="fill:gray"/></g></g></svg>