<svg id="Layer_1" data-name="Layer 1" xmlns="http://www.w3.org/2000/svg" viewBox="0 0 4.2 4.54"><title>circuitos</title><g id="Layer_1-2" data-name="Layer_1"><g id="_1713091770640" data-name=" 1713091770640"><path d="M5.87,6.63h0l0,0,.39-.85a.52.52,0,0,0,.09-.31.64.64,0,0,0-1.28,0,.52.52,0,0,0,.09.31l.39.85v0h0a.26.26,0,0,0,.15.09C5.81,6.72,5.84,6.66,5.87,6.63Z" transform="translate(-4.99 -4.82)" style="fill:#e02418;fill-rule:evenodd"/><path d="M6.66,5.27H8.28a.85.85,0,0,1,.82.57.84.84,0,0,1,.08.4.83.83,0,0,1-.08.39,1,1,0,0,1-.91.63H6a.59.59,0,0,0-.57.37h0a1.11,1.11,0,0,0,0,.25,1.26,1.26,0,0,0,0,.28h0A.59.59,0,0,0,6,8.53H7.6v.34H6a.93.93,0,0,1-.91-.59h0A1.06,1.06,0,0,1,5,7.88a1.19,1.19,0,0,1,.08-.4h0A.93.93,0,0,1,6,6.89H8.19a.61.61,0,0,0,.57-.37,1.18,1.18,0,0,0,.06-.28A.66.66,0,0,0,8.76,6a.5.5,0,0,0-.48-.37H6.66Z" transform="translate(-4.99 -4.82)" style="fill:#adab9d"/><path d="M8.56,9.3h0l0,0L9,8.42A.64.64,0,1,0,7.8,8.11a.55.55,0,0,0,.08.31l.4.85v0h0a.2.2,0,0,0,.14,0A.17.17,0,0,0,8.56,9.3Z" transform="translate(-4.99 -4.82)" style="fill:#007bc3;fill-rule:evenodd"/></g></g></svg>