<svg id="Layer_1" data-name="Layer 1" xmlns="http://www.w3.org/2000/svg" viewBox="0 0 4.31 4.99"><title>envios</title><g id="Layer_1-2" data-name="Layer_1"><g id="_1713003529184" data-name=" 1713003529184"><path d="M6.63,6.24l.12.34h.36a.23.23,0,0,1,.15,0h0s0,.06.08.12v.14h0c0,.05,0,.08-.08.11h0L7,7.23l.12.31v0a.34.34,0,0,1,0,.17S7,7.8,7,7.82a.2.2,0,0,1-.11.06h0a.48.48,0,0,1-.14-.06h0l-.28-.19-.29.19A.2.2,0,0,1,6,7.88H6a.2.2,0,0,1-.14-.06h0a.26.26,0,0,1-.09-.11h0a.17.17,0,0,1,0-.14v0l.12-.31L5.58,7h0a.57.57,0,0,1-.11-.11h0V6.75h0a.16.16,0,0,1,.06-.12h0a.34.34,0,0,1,.17,0h.34l.11-.34h0a.35.35,0,0,1,.11-.15h0a.25.25,0,0,1,.12,0,.36.36,0,0,1,.14,0,.24.24,0,0,1,.08.15Zm-.17.56,0-.11,0,.11-.06.12H6.07L6.18,7l.11.09,0,.11,0,.14.08-.08.12-.09.11.09.11.08,0-.14,0-.11L6.66,7l.09-.08H6.49ZM6,7.63Z" transform="translate(-4.93 -4.59)" style="fill:#e02418"/><path d="M5.3,5.22V9L8.53,7.09ZM4.93,9.27V4.59l.26.17L9,6.94l.25.15L9,7.26,5.19,9.41l-.26.17Z" transform="translate(-4.93 -4.59)" style="fill:#e02418"/></g></g></svg>