<svg id="Layer_1" data-name="Layer 1" xmlns="http://www.w3.org/2000/svg" viewBox="0 0 12.3 11.45"><title>envios carrusel</title><g id="Layer_1-2" data-name="Layer_1"><g id="_1713014290656" data-name=" 1713014290656"><path d="M10.12,4.34a4.95,4.95,0,1,1-4.93,5A4.95,4.95,0,0,1,10.12,4.34Z" transform="translate(-5.19 -2.78)" style="fill:#ff8178;fill-rule:evenodd"/><path d="M12.56,5.84l.22.71h.74a.52.52,0,0,1,.26.08h0c0,.06.08.12.08.17h0a.23.23,0,0,1,0,.2.25.25,0,0,1-.11.2h0l-.63.45.23.71h0a.77.77,0,0,1,0,.26h0a1,1,0,0,1-.14.17.37.37,0,0,1-.17.05h0a.44.44,0,0,1-.26-.08h0l-.59-.43-.6.43a.29.29,0,0,1-.22.08h0a.24.24,0,0,1-.2-.08.25.25,0,0,1-.11-.14h0a.39.39,0,0,1,0-.26h0l.22-.71-.59-.42A.49.49,0,0,1,10.52,7h0V6.8h0s.08-.11.11-.17a.42.42,0,0,1,.26-.08h.73l.23-.71a.36.36,0,0,1,.17-.2h0a.39.39,0,0,1,.17-.06.43.43,0,0,1,.2.06h0a.41.41,0,0,1,.17.2Zm-.17,1-.2-.54L12,6.86,12,7h-.73l.45.34.14.09-.06.17-.17.53.46-.31.14-.11.14.11.48.31-.2-.53,0-.17.14-.09L13.18,7h-.76Z" transform="translate(-5.19 -2.78)" style="fill:gray"/><path d="M10,3.77v7.34l6.35-3.68Zm-.57,7.82V2.78L9.86,3l7.2,4.17.43.23-.43.25-7.2,4.17-.42.23Z" transform="translate(-5.19 -2.78)" style="fill:gray"/></g></g></svg>