<svg id="Layer_1" data-name="Layer 1" xmlns="http://www.w3.org/2000/svg" viewBox="0 0 12.02 10.83"><title>excursiones carrusel</title><g id="Layer_1-2" data-name="Layer_1"><g id="_1713003548512" data-name=" 1713003548512"><path d="M7.43,4.05A4.94,4.94,0,1,1,2.49,9,4.94,4.94,0,0,1,7.43,4.05Z" transform="translate(-2.49 -3.09)" style="fill:#99d1ef;fill-rule:evenodd"/><polygon points="4.56 6.41 7.63 6.43 7.63 6.95 4.56 6.92 4.56 6.41" style="fill:gray"/><path d="M14.51,3.57V9.69a3.53,3.53,0,0,1-1.87,3.43,2.75,2.75,0,0,1-1.33.32,2.9,2.9,0,0,1-1.3-.32A3.48,3.48,0,0,1,8.22,9.75l.51,0a2.92,2.92,0,0,0,1.5,2.89,2.42,2.42,0,0,0,1.08.26,2.9,2.9,0,0,0,1.11-.23,3.16,3.16,0,0,0,1.61-3V3.57Z" transform="translate(-2.49 -3.09)" style="fill:gray"/><path d="M6.52,3.09h4.14a2.57,2.57,0,0,1,1.87.77,2.63,2.63,0,0,1,.79,1.87,2.66,2.66,0,0,1-.79,1.87h0a2.63,2.63,0,0,1-1.87.79H9.61l-.09-.11C9.33,8,9.16,7.77,9,7.57c-.32-.43-.46-.63-.51-.63s-.2.2-.51.63l-.54.71-.09.11H6.52A2.63,2.63,0,0,1,4.65,7.6a2.66,2.66,0,0,1-.79-1.87,2.63,2.63,0,0,1,.79-1.87h0A2.57,2.57,0,0,1,6.52,3.09Zm4.14.48H6.52A2.19,2.19,0,0,0,5,4.22H5a2,2,0,0,0-.62,1.51A2.14,2.14,0,0,0,5,7.26a2.25,2.25,0,0,0,1.53.62h.59l.46-.59c.4-.57.59-.86.91-.86s.51.29.9.86a6.22,6.22,0,0,1,.48.59h.8a2.27,2.27,0,0,0,1.53-.62h0a2.27,2.27,0,0,0,.62-1.53,2.15,2.15,0,0,0-.62-1.51A2.21,2.21,0,0,0,10.66,3.57Z" transform="translate(-2.49 -3.09)" style="fill:gray"/></g></g></svg>