<svg id="Layer_1" data-name="Layer 1" xmlns="http://www.w3.org/2000/svg" viewBox="0 0 4.03 3.92"><title>excursiones</title><g id="Layer_1-2" data-name="Layer_1"><g id="_1713076985184" data-name=" 1713076985184"><polygon points="1.25 2.32 2.35 2.32 2.35 2.69 1.25 2.67 1.25 2.32" style="fill:#adab9d"/><path d="M9.1,5.39V7.6a1.37,1.37,0,0,1-.71,1.33A1,1,0,0,1,7.85,9a1.17,1.17,0,0,1-.51-.11h0a1.35,1.35,0,0,1-.71-1.3H7a1.05,1.05,0,0,0,.51,1h0a.88.88,0,0,0,.34.08.87.87,0,0,0,.37-.08,1,1,0,0,0,.54-1V5.39Z" transform="translate(-5.07 -5.13)" style="fill:#adab9d"/><path d="M6.12,5.13H7.63a1.12,1.12,0,0,1,.73.28h0a1.06,1.06,0,0,1,.31.77,1,1,0,0,1-.31.74h0a1.06,1.06,0,0,1-.73.31H7.2l-.06-.09-.2-.25c-.08-.12-.08-.2-.11-.2s0,.08-.11.2l-.2.25-.06.09H6.12a1.07,1.07,0,0,1-.76-.31,1.16,1.16,0,0,1-.29-.74,1.18,1.18,0,0,1,.29-.77h0A1.14,1.14,0,0,1,6.12,5.13Zm1.51.34H6.12a.83.83,0,0,0-.51.2h0a.83.83,0,0,0-.2.51.82.82,0,0,0,.2.48.83.83,0,0,0,.51.2h.17a.52.52,0,0,1,.14-.17c.15-.23.23-.34.4-.34s.23.11.4.34l.14.17h.26a.77.77,0,0,0,.48-.2h0a.82.82,0,0,0,.2-.48.83.83,0,0,0-.2-.51h0A.77.77,0,0,0,7.63,5.47Z" transform="translate(-5.07 -5.13)" style="fill:#007bc3"/></g></g></svg>