<svg id="Layer_1" data-name="Layer 1" xmlns="http://www.w3.org/2000/svg" viewBox="0 0 13.32 10.94"><title>hoteles carrusel</title><g id="Layer_1-2" data-name="Layer_1"><g id="_1713077808096" data-name=" 1713077808096"><path d="M10.23,3.86A4.93,4.93,0,1,1,5.3,8.79,4.94,4.94,0,0,1,10.23,3.86Z" transform="translate(-1.84 -3.03)" style="fill:#99d1ef;fill-rule:evenodd"/><polygon points="0 10.43 13.27 10.43 13.27 10.94 0 10.94 0 10.43" style="fill:gray"/><path d="M4.71,3H9.3a1.28,1.28,0,0,1,.85.34h0a1.28,1.28,0,0,1,.34.85V14h-7V4.22a1.28,1.28,0,0,1,.35-.85h0A1.26,1.26,0,0,1,4.71,3Zm4.59.51H4.71a.61.61,0,0,0-.49.2h0A.72.72,0,0,0,4,4.22v9.24h6V4.22a.61.61,0,0,0-.2-.48h0A.58.58,0,0,0,9.3,3.54Z" transform="translate(-1.84 -3.03)" style="fill:gray"/><path d="M10.23,5.64h2a1.26,1.26,0,0,1,.82.34,1.28,1.28,0,0,1,.34.85V14H10V5.64Zm2,.51H10.49v7.31H12.9V6.83a.58.58,0,0,0-.2-.48A.56.56,0,0,0,12.25,6.15Z" transform="translate(-1.84 -3.03)" style="fill:gray"/><polygon points="3.71 3.69 6.61 3.69 6.61 4.2 3.71 4.2 3.71 3.69" style="fill:gray"/><polygon points="3.71 5.3 6.61 5.3 6.61 5.81 3.71 5.81 3.71 5.3" style="fill:gray"/><polygon points="3.46 10.69 3.46 7.79 3.46 7.57 3.71 7.57 6.61 7.57 6.86 7.57 6.86 7.79 6.86 10.69 6.35 10.69 6.35 8.05 3.97 8.05 3.97 10.69 3.46 10.69" style="fill:gray"/><polygon points="3.71 2.24 6.61 2.24 6.61 2.72 3.71 2.72 3.71 2.24" style="fill:gray"/></g></g></svg>