<svg id="Layer_1" data-name="Layer 1" xmlns="http://www.w3.org/2000/svg" viewBox="0 0 3.63 4.71"><title>ofertas</title><g id="Layer_1-2" data-name="Layer_1"><g id="_1713091442416" data-name=" 1713091442416"><path d="M7.09,4.73a1.7,1.7,0,0,1,1.27.54A1.72,1.72,0,0,1,8.9,6.55a1.7,1.7,0,0,1-.54,1.27,1.7,1.7,0,0,1-1.27.54,1.72,1.72,0,0,1-1.28-.54,1.7,1.7,0,0,1-.54-1.27,1.72,1.72,0,0,1,.54-1.28A1.72,1.72,0,0,1,7.09,4.73Zm1,.8a1.35,1.35,0,0,0-1-.43,1.32,1.32,0,0,0-1,.43,1.32,1.32,0,0,0-.43,1A1.45,1.45,0,0,0,7.09,8,1.43,1.43,0,0,0,8.53,6.55,1.34,1.34,0,0,0,8.11,5.53Z" transform="translate(-5.27 -4.73)" style="fill:#adab9d"/><path d="M7.26,5.58l.17.51h.51a.19.19,0,0,1,.17.17.23.23,0,0,1-.06.15h0l-.42.31.14.48a.16.16,0,0,1-.12.23c-.05,0-.11,0-.17,0l-.39-.31-.43.31a.16.16,0,0,1-.25-.2h0l.14-.48-.4-.31a.2.2,0,0,1-.06-.26.32.32,0,0,1,.17-.06h.49l.17-.51a.18.18,0,0,1,.22-.11c.06,0,.09.09.12.11Zm-.15.74,0-.08,0,.08a.15.15,0,0,1-.17.11H6.8l.06.06c.08.06.11.14.08.2l0,.08,0,0a.17.17,0,0,1,.23,0l.06,0,0,0a.2.2,0,0,1,.08-.23l.06-.06H7.29C7.2,6.43,7.14,6.41,7.11,6.32Z" transform="translate(-5.27 -4.73)" style="fill:#adab9d"/><path d="M6.26,8.22v.85L7,8.82l.06,0,0,0,.77.25V8.22h.34v.91h0v.08c0,.06-.06.14-.14.17h0a.24.24,0,0,1-.2.06H7.85v0l-.76-.25-.77.25v0H6.26c-.08,0-.14,0-.19-.06h0c-.09,0-.12-.11-.15-.2h0v0h0V8.22Z" transform="translate(-5.27 -4.73)" style="fill:#e02418"/></g></g></svg>