<svg id="Layer_1" data-name="Layer 1" xmlns="http://www.w3.org/2000/svg" viewBox="0 0 11.06 11.97"><title>ofertas carrusel</title><g id="Layer_1-2" data-name="Layer_1"><g id="_1713003556640" data-name=" 1713003556640"><path d="M9.1,3.06A4.94,4.94,0,1,1,4.17,8,4.93,4.93,0,0,1,9.1,3.06Z" transform="translate(-2.98 -2.52)" style="fill:#5cbbf2;fill-rule:evenodd"/><path d="M7.54,2.52a4.5,4.5,0,0,1,3.23,1.34,4.52,4.52,0,0,1,0,6.46h0a4.44,4.44,0,0,1-3.23,1.36,4.49,4.49,0,0,1-3.23-1.36,4.59,4.59,0,0,1,0-6.46h0A4.55,4.55,0,0,1,7.54,2.52Zm2.83,1.73A3.87,3.87,0,0,0,7.54,3.09,3.92,3.92,0,0,0,4.71,4.25h0A4,4,0,0,0,3.54,7.09,3.91,3.91,0,0,0,4.71,9.92a3.94,3.94,0,0,0,2.83,1.19,3.89,3.89,0,0,0,2.83-1.19h0a3.93,3.93,0,0,0,1.2-2.83A4,4,0,0,0,10.37,4.25Z" transform="translate(-2.98 -2.52)" style="fill:gray"/><path d="M7.77,4.68h0s0,.08,0,.14Zm0,0,.48,1.44h1.5a.24.24,0,0,1,.26.23.3.3,0,0,1-.12.2h0l-1.22.88.49,1.44c0,.14,0,.29-.17.31a.23.23,0,0,1-.23,0L7.54,8.25l-1.22.91A.28.28,0,0,1,6,9.1a.21.21,0,0,1,0-.23H6l.46-1.44L5.19,6.55a.24.24,0,0,1-.06-.34c.06-.06.14-.12.2-.09H6.86l.45-1.44a.26.26,0,0,1,.32-.17.31.31,0,0,1,.14.17Zm.08,1.75-.31-.9-.28.9h0A.23.23,0,0,1,7,6.58h-1l.76.56a.23.23,0,0,1,.09.29l-.29.9.77-.56h0a.24.24,0,0,1,.28,0l.77.56-.29-.9a.27.27,0,0,1,.09-.29L9,6.58H8.08A.21.21,0,0,1,7.85,6.43Z" transform="translate(-2.98 -2.52)" style="fill:gray"/><path d="M5.22,11.45v2.41h0a.13.13,0,0,0,0,.06h0s.06,0,.09,0h0l2.13-.71.08-.06.09.06,2.12.71h0a0,0,0,0,0,.06,0s0,0,0-.06h0V11.45h.57V14h0a.73.73,0,0,1-.28.4.8.8,0,0,1-.43.09H9.61l0,0-2-.71-2,.71,0,0H5.36a.84.84,0,0,1-.43-.09h0a.69.69,0,0,1-.25-.4h0a.15.15,0,0,1,0-.11V11.45Z" transform="translate(-2.98 -2.52)" style="fill:gray"/></g></g></svg>