<svg id="Layer_1" data-name="Layer 1" xmlns="http://www.w3.org/2000/svg" viewBox="0 0 11.23 14.06"><title>recargas carrusel</title><g id="Layer_1-2" data-name="Layer_1"><g id="_1713014285888" data-name=" 1713014285888"><path d="M10.69,4.65a4.95,4.95,0,1,1-5,4.93A4.93,4.93,0,0,1,10.69,4.65Z" transform="translate(-5.73 -1.47)" style="fill:#ff8178;fill-rule:evenodd"/><path d="M11,6H17v9.55H10.71V6Zm5.38.57h-5.1V15h5.1Z" transform="translate(-5.73 -1.47)" style="fill:gray"/><polygon points="8.39 0 8.39 3.74 7.82 3.74 7.82 0 8.39 0" style="fill:gray"/><polygon points="6.69 1.9 8.11 3.35 9.52 1.9 9.92 2.3 8.31 3.94 8.11 4.14 7.91 3.94 6.26 2.3 6.69 1.9" style="fill:gray"/><polygon points="8.79 6.09 7.43 6.09 7.43 5.53 8.79 5.53 8.79 6.09" style="fill:gray"/><path d="M13.83,12.81a1,1,0,0,1,.63.26h0a.89.89,0,0,1,0,1.24h0a1,1,0,0,1-.63.26.92.92,0,0,1-.62-.26h0a1,1,0,0,1-.26-.62,1,1,0,0,1,.26-.62A1,1,0,0,1,13.83,12.81Zm.2.65a.38.38,0,0,0-.2-.08.63.63,0,0,0-.22.08.33.33,0,0,0-.09.23.32.32,0,0,0,.09.23h0a.33.33,0,0,0,.22.08.23.23,0,0,0,.2-.08h0a.52.52,0,0,0,.08-.23.57.57,0,0,0-.08-.23Z" transform="translate(-5.73 -1.47)" style="fill:gray"/><polygon points="10.18 7.2 10.18 10.66 10.18 10.94 9.89 10.94 6.32 10.94 6.04 10.94 6.04 10.66 6.04 7.2 6.61 7.2 6.61 10.38 9.61 10.38 9.61 7.2 10.18 7.2" style="fill:gray"/></g></g></svg>