<svg id="Layer_1" data-name="Layer 1" xmlns="http://www.w3.org/2000/svg" viewBox="0 0 2.78 6.07"><title>recargas</title><g id="Layer_1-2" data-name="Layer_1"><g id="_1713003513120" data-name=" 1713003513120"><path d="M5.87,5.92H8.48v4.2H5.7V5.92Zm2.24.34h-2V9.75h2Z" transform="translate(-5.7 -4.05)" style="fill:#adab9d"/><polygon points="1.56 0 1.56 1.59 1.22 1.59 1.22 0 1.56 0" style="fill:#e02418"/><polygon points="0.82 0.77 1.39 1.33 1.96 0.77 2.21 1.02 1.5 1.73 1.39 1.84 1.28 1.73 0.57 1.02 0.82 0.77" style="fill:#e02418"/><polygon points="1.67 2.72 1.11 2.72 1.11 2.38 1.67 2.38 1.67 2.72" style="fill:#adab9d"/><path d="M7.09,9a.29.29,0,0,1,.28.31.28.28,0,0,1-.28.28A.29.29,0,0,1,6.8,9.3.3.3,0,0,1,7.09,9Z" transform="translate(-5.7 -4.05)" style="fill:#e02418;fill-rule:evenodd"/><polygon points="2.24 3.09 2.24 4.56 2.24 4.73 2.07 4.73 0.71 4.73 0.54 4.73 0.54 4.56 0.54 3.09 0.91 3.09 0.91 4.37 1.87 4.37 1.87 3.09 2.24 3.09" style="fill:#adab9d"/></g></g></svg>