<svg id="Layer_1" data-name="Layer 1" xmlns="http://www.w3.org/2000/svg" viewBox="0 0 12.36 12.02"><title>remesas carrusel</title><g id="Layer_1-2" data-name="Layer_1"><g id="_1713003539328" data-name=" 1713003539328"><path d="M12.56,4.65A4.93,4.93,0,1,1,7.63,9.58,4.94,4.94,0,0,1,12.56,4.65Z" transform="translate(-5.16 -2.49)" style="fill:#ffa9a3;fill-rule:evenodd"/><path d="M12.93,2.49a4,4,0,0,1,0,8h-.49l.06-.34.09-.4h0v-.4A3.4,3.4,0,0,0,9.3,6L9,5.92l0-.34a4.06,4.06,0,0,1,3.92-3.09Zm2.41,1.59a3.45,3.45,0,0,0-2.41-1,3.5,3.5,0,0,0-2.16.74,3.29,3.29,0,0,0-1.1,1.61,4,4,0,0,1,3.48,3.94,2.69,2.69,0,0,1,0,.49v.08a3.5,3.5,0,0,0,2.22-1,3.43,3.43,0,0,0,1-2.44A3.39,3.39,0,0,0,15.34,4.08Z" transform="translate(-5.16 -2.49)" style="fill:gray"/><path d="M14.31,8.7V8.22H12.7a2.25,2.25,0,0,1,.11.48Zm-1.72-.79a2.35,2.35,0,0,0,.19-.43,3.23,3.23,0,0,0,0-.76h.88v-.4h-.93a2.63,2.63,0,0,1-.09-.74c0-.45.2-.82.74-.82A1,1,0,0,1,14,4.9l.12-.45a1.44,1.44,0,0,0-.71-.17,1.23,1.23,0,0,0-1.28,1.3,5.28,5.28,0,0,0,.06.74h-.62v.23c.08,0,.14.11.22.17h.46a4.62,4.62,0,0,1,.05.48c0,.06,0,.09,0,.14A3.49,3.49,0,0,1,12.59,7.91Z" transform="translate(-5.16 -2.49)" style="fill:gray;fill-rule:evenodd"/><path d="M10.37,10.91a1.85,1.85,0,0,1-.82.2,1.29,1.29,0,0,1-1-.37,1.71,1.71,0,0,1-.37-.88h1.9V9.52H8.19V9.13h1.93V8.82H8.25A1.48,1.48,0,0,1,8.65,8a1.12,1.12,0,0,1,.9-.37,1.35,1.35,0,0,1,.74.2l.14-.46a1.88,1.88,0,0,0-.91-.23,1.75,1.75,0,0,0-1.3.57,2.13,2.13,0,0,0-.57,1.14H7.2v.31h.4v.39H7.23v.34h.4A1.85,1.85,0,0,0,8.11,11a1.75,1.75,0,0,0,1.36.62,1.94,1.94,0,0,0,1-.28Z" transform="translate(-5.16 -2.49)" style="fill:gray"/><path d="M9.16,5.39A3.9,3.9,0,0,1,12,6.55h0a3.9,3.9,0,0,1,1.16,2.83A3.89,3.89,0,0,1,12,12.19h0a3.9,3.9,0,0,1-2.83,1.16,4,4,0,0,1-4-4A3.93,3.93,0,0,1,6.35,6.55h0A3.84,3.84,0,0,1,9.16,5.39Zm2.43,1.55h0a3.45,3.45,0,0,0-4.84,0h0a3.42,3.42,0,0,0-1,2.44,3.43,3.43,0,0,0,3.43,3.4,3.36,3.36,0,0,0,2.43-1h0a3.35,3.35,0,0,0,1-2.41A3.41,3.41,0,0,0,11.59,6.94Z" transform="translate(-5.16 -2.49)" style="fill:gray"/></g></g></svg>