<svg id="Layer_1" data-name="Layer 1" xmlns="http://www.w3.org/2000/svg" viewBox="0 0 5.44 5.05"><title>remesas</title><g id="Layer_1-2" data-name="Layer_1"><g id="_1713077771456" data-name=" 1713077771456"><path d="M6.12,6A1.92,1.92,0,0,1,7.94,4.56a1.84,1.84,0,0,1,1.3.57h0a1.84,1.84,0,0,1,.57,1.3,1.81,1.81,0,0,1-.57,1.31h0a1.84,1.84,0,0,1-1.3.57V7.94a1.48,1.48,0,0,0,1-.43v0A1.44,1.44,0,0,0,9,5.39H9a1.39,1.39,0,0,0-1-.46A1.41,1.41,0,0,0,7,5.27a1.56,1.56,0,0,0-.54.82Z" transform="translate(-4.37 -4.56)" style="fill:#adab9d"/><path d="M6.83,8.31a1.06,1.06,0,0,1-.34.08.5.5,0,0,1-.4-.17A.55.55,0,0,1,6,8h.77V7.8H6V7.65h.8V7.46H6a.38.38,0,0,1,.11-.2.45.45,0,0,1,.37-.17.57.57,0,0,1,.34.08l.09-.37a1.9,1.9,0,0,0-.46-.08.9.9,0,0,0-.7.31,1,1,0,0,0-.2.43h-.2v.19H5.5s0,.06,0,.09V7.8H5.33V8h.2a1,1,0,0,0,.17.4.94.94,0,0,0,.73.34,1,1,0,0,0,.46-.11Z" transform="translate(-4.37 -4.56)" style="fill:#adab9d"/><path d="M6.24,5.87a1.78,1.78,0,0,1,1.3.56A1.78,1.78,0,0,1,7.54,9h0a1.79,1.79,0,0,1-1.3.57A1.86,1.86,0,0,1,4.93,9a1.78,1.78,0,0,1-.56-1.3,1.82,1.82,0,0,1,.56-1.31h0A1.85,1.85,0,0,1,6.24,5.87Zm1.07.82a1.5,1.5,0,0,0-1.07-.45,1.39,1.39,0,0,0-1,.45h0a1.36,1.36,0,0,0-.46,1,1.39,1.39,0,0,0,.46,1,1.39,1.39,0,0,0,1,.45,1.5,1.5,0,0,0,1.07-.45h0a1.48,1.48,0,0,0,.43-1A1.44,1.44,0,0,0,7.31,6.69Z" transform="translate(-4.37 -4.56)" style="fill:#adab9d"/><path d="M8.59,7.4V7H7.8a1.21,1.21,0,0,0,.14-.2.56.56,0,0,0,0-.22h.36V6.26H7.94a.56.56,0,0,1,0-.22.26.26,0,0,1,.28-.29.82.82,0,0,1,.26.06l.05-.34a.5.5,0,0,0-.34-.08.63.63,0,0,0-.7.62c0,.08,0,.17,0,.25H7.26v.15l.2.17h.08s0,.08,0,.11a1.85,1.85,0,0,1,.31.71Z" transform="translate(-4.37 -4.56)" style="fill:#adab9d;fill-rule:evenodd"/></g></g></svg>