<svg id="Layer_1" data-name="Layer 1" xmlns="http://www.w3.org/2000/svg" viewBox="0 0 4.48 3.91"><title>tienda</title><g id="Layer_1-2" data-name="Layer_1"><g id="_1713003546400" data-name=" 1713003546400"><path d="M7,6V6H6.72l0,0a1.3,1.3,0,0,0-.88-.54.39.39,0,0,0-.17.06s-.06,0-.08.08a.79.79,0,0,0,.17.54l-.29.17a1,1,0,0,1-.22-.82.47.47,0,0,1,.25-.28.67.67,0,0,1,.34-.09,1.53,1.53,0,0,1,1,.51l0,0h0a.59.59,0,0,1,.23-.05.48.48,0,0,1,.22.05h0l0,0a1.53,1.53,0,0,1,1-.51h0a.75.75,0,0,1,.37.09A.47.47,0,0,1,9,5.5a1,1,0,0,1-.23.85l-.28-.2a.69.69,0,0,0,.17-.54c0-.05,0-.08-.09-.08a.23.23,0,0,0-.17-.06A1.66,1.66,0,0,0,7.48,6l0,0H7.14V6h0s0,0,0,0H7.06L7,6Z" transform="translate(-4.85 -5.13)" style="fill:#007bc3"/><polygon points="4.08 1.9 4.08 3.74 4.08 3.91 3.88 3.91 0.57 3.91 0.4 3.91 0.4 3.74 0.4 1.9 0.77 1.9 0.77 3.57 3.71 3.57 3.71 1.9 4.08 1.9" style="fill:#adab9d"/><polygon points="3.4 1.73 4.11 1.73 4.11 1.3 2.67 1.3 2.67 1.9 2.3 1.9 2.3 1.13 2.3 0.94 2.47 0.94 4.31 0.94 4.48 0.94 4.48 1.13 4.48 1.9 4.48 2.07 4.31 2.07 3.4 2.07 3.4 1.73" style="fill:#adab9d"/><polygon points="1.08 2.07 0.17 2.07 0 2.07 0 1.9 0 1.13 0 0.94 0.17 0.94 2.01 0.94 2.18 0.94 2.18 1.13 2.18 1.9 1.81 1.9 1.81 1.3 0.37 1.3 0.37 1.73 1.08 1.73 1.08 2.07" style="fill:#adab9d"/></g></g></svg>