<svg id="Layer_1" data-name="Layer 1" xmlns="http://www.w3.org/2000/svg" viewBox="0 0 11.74 10.21"><title>tienda carrusel</title><g id="Layer_1-2" data-name="Layer_1"><g id="_1713003542112" data-name=" 1713003542112"><path d="M12.27,3.74A4.94,4.94,0,1,1,7.34,8.67,4.94,4.94,0,0,1,12.27,3.74Z" transform="translate(-5.47 -3.39)" style="fill:#ffa9a3;fill-rule:evenodd"/><polygon points="8.9 4.15 8.9 8.28 8.9 8.57 8.62 8.57 1.16 8.57 0.88 8.57 0.88 8.28 0.88 4.15 1.45 4.15 1.45 8 8.33 8 8.33 4.15 8.9 4.15" style="fill:gray"/><polygon points="7.48 3.86 9.24 3.86 9.24 2.7 5.73 2.7 5.73 4.15 5.16 4.15 5.16 2.42 5.16 2.13 5.44 2.13 9.52 2.13 9.81 2.13 9.81 2.42 9.81 4.15 9.81 4.43 9.52 4.43 7.48 4.43 7.48 3.86" style="fill:gray"/><path d="M9.55,5.19v0a3,3,0,0,0-2-1.22.86.86,0,0,0-.45.11.47.47,0,0,0-.2.26c-.11.28,0,.71.37,1.3l-.48.31a2.11,2.11,0,0,1-.43-1.78,1,1,0,0,1,.48-.57,1.08,1.08,0,0,1,.74-.17A3.46,3.46,0,0,1,9.81,4.59a.57.57,0,0,1,.11-.11.83.83,0,0,1,.45-.11.81.81,0,0,1,.46.11l.14.11A3.34,3.34,0,0,1,13.21,3.4a1.08,1.08,0,0,1,.76.17.85.85,0,0,1,.46.57A2,2,0,0,1,14,5.92l-.48-.31c.4-.59.51-1,.4-1.3a.4.4,0,0,0-.2-.26A.79.79,0,0,0,13.24,4h0a3,3,0,0,0-2,1.19v0h-.57V5.13h0v0A.38.38,0,0,0,10.52,5a.22.22,0,0,0-.15,0,.21.21,0,0,0-.14,0,.38.38,0,0,0-.11.14v.09Z" transform="translate(-5.47 -3.39)" style="fill:gray"/><polygon points="2.32 4.43 0.28 4.43 0 4.43 0 4.15 0 2.42 0 2.13 0.28 2.13 4.37 2.13 4.65 2.13 4.65 2.42 4.65 4.15 4.08 4.15 4.08 2.7 0.57 2.7 0.57 3.86 2.32 3.86 2.32 4.43" style="fill:gray"/></g></g></svg>