<svg id="Layer_1" data-name="Layer 1" xmlns="http://www.w3.org/2000/svg" viewBox="0 0 11.62 11"><title>tramites carrusel</title><g id="Layer_1-2" data-name="Layer_1"><g id="_1713103932736" data-name=" 1713103932736"><path d="M12.22,3.4A4.94,4.94,0,1,1,7.29,8.33,4.93,4.93,0,0,1,12.22,3.4Z" transform="translate(-5.53 -3)" style="fill:#ff8178;fill-rule:evenodd"/><polyline points="6.69 9.3 8.16 9.3 8.16 1.84 6.58 0.26 1.7 0.26 1.7 1.7" style="fill:none"/><polygon points="6.69 9.04 7.91 9.04 7.91 1.96 6.46 0.51 1.96 0.51 1.96 1.7 1.47 1.7 1.47 0.26 1.47 0 1.7 0 6.58 0 6.69 0 6.75 0.09 8.36 1.67 8.42 1.76 8.42 1.84 8.42 9.3 8.42 9.52 8.16 9.52 6.69 9.52 6.69 9.04" style="fill:gray"/><polygon points="6.95 0.26 6.95 1.47 8.16 1.47 8.16 1.98 6.69 1.98 6.43 1.98 6.43 1.73 6.43 0.26 6.95 0.26" style="fill:gray"/><polygon points="2.01 5.98 4.9 5.98 4.9 6.49 2.01 6.49 2.01 5.98" style="fill:gray"/><polygon points="2.01 7.6 4.9 7.6 4.9 8.08 2.01 8.08 2.01 7.6" style="fill:gray"/><polygon points="2.01 4.51 4.9 4.51 4.9 5.02 2.01 5.02 2.01 4.51" style="fill:gray"/><path d="M10.52,5H6v8.53h6V6.41ZM5.75,4.48h5l.06.06,1.59,1.58.08.09V14H5.53V4.48Z" transform="translate(-5.53 -3)" style="fill:gray"/><polygon points="5.47 1.7 5.47 2.95 6.69 2.95 6.69 3.46 5.22 3.46 4.96 3.46 4.96 3.2 4.96 1.7 5.47 1.7" style="fill:gray"/></g></g></svg>