<svg id="Layer_1" data-name="Layer 1" xmlns="http://www.w3.org/2000/svg" viewBox="0 0 3.69 4.76"><title>tramites</title><g id="Layer_1-2" data-name="Layer_1"><g id="_1713019869392" data-name=" 1713019869392"><polyline points="2.89 3.97 3.52 3.97 3.52 0.85 2.83 0.2 0.79 0.2 0.79 0.79" style="fill:none"/><polygon points="2.89 3.8 3.32 3.8 3.32 0.94 2.75 0.37 0.99 0.37 0.99 0.79 0.62 0.79 0.62 0.2 0.62 0 0.79 0 2.83 0 2.92 0 2.95 0.06 3.63 0.74 3.69 0.79 3.69 0.85 3.69 3.97 3.69 4.14 3.52 4.14 2.89 4.14 2.89 3.8" style="fill:#adab9d"/><polygon points="3.06 0.2 3.06 0.62 3.52 0.62 3.52 0.99 2.89 0.99 2.69 0.99 2.69 0.82 2.69 0.2 3.06 0.2" style="fill:#adab9d"/><polygon points="0.94 2.49 2.13 2.49 2.13 2.86 0.94 2.86 0.94 2.49" style="fill:#adab9d"/><polygon points="0.94 3.17 2.13 3.17 2.13 3.54 0.94 3.54 0.94 3.17" style="fill:#adab9d"/><polygon points="0.94 1.9 2.13 1.9 2.13 2.24 0.94 2.24 0.94 1.9" style="fill:#adab9d"/><path d="M7.4,5.7H5.61V9.1H7.94V6.24Zm-2-.37H7.54l.06.06L8.25,6l.06,0V9.47H5.24V5.33Z" transform="translate(-5.24 -4.71)" style="fill:#adab9d"/><polygon points="2.44 0.79 2.44 1.25 2.89 1.25 2.89 1.59 2.27 1.59 2.1 1.59 2.1 1.42 2.1 0.79 2.44 0.79" style="fill:#adab9d"/></g></g></svg>