<svg id="Layer_1" data-name="Layer 1" xmlns="http://www.w3.org/2000/svg" viewBox="0 0 5.16 3.57"><title>traslados</title><g id="Layer_1-2" data-name="Layer_1"><g id="_1713083674400" data-name=" 1713083674400"><path d="M5.7,8.39H5.05a.52.52,0,0,1-.37-.17h0a.44.44,0,0,1-.17-.37v-2a.51.51,0,0,1,.17-.4h0a.54.54,0,0,1,.37-.14h3.2a.59.59,0,0,1,.34.06.55.55,0,0,1,.28.25h0l.63.91a2.12,2.12,0,0,1,.14.31.93.93,0,0,1,0,.31v.71a.47.47,0,0,1-.17.37h0a.56.56,0,0,1-.37.17V8a.19.19,0,0,0,.11,0h0a.12.12,0,0,0,.06-.12V6.92a1.16,1.16,0,0,0-.12-.2l-.62-.91h0a.57.57,0,0,0-.11-.14c-.06,0-.12,0-.2,0H5.05a.16.16,0,0,0-.12.06h0s0,.08,0,.14v2a.13.13,0,0,0,0,.12h0a.19.19,0,0,0,.12,0H5.7Zm2.89,0H6.21V8H8.59Z" transform="translate(-4.51 -5.3)" style="fill:#adab9d"/><path d="M5.7,7.51a.82.82,0,0,1,.48.2h0a.82.82,0,0,1,.2.48.69.69,0,0,1-.2.48.63.63,0,0,1-.48.2.55.55,0,0,1-.48-.2h0A.55.55,0,0,1,5,8.19h.34a.34.34,0,0,0,.11.23h0a.34.34,0,0,0,.23.11.31.31,0,0,0,.22-.11A.32.32,0,0,0,6,8.19.29.29,0,0,0,5.92,8h0a.29.29,0,0,0-.22-.09Z" transform="translate(-4.51 -5.3)" style="fill:#adab9d"/><polygon points="2.04 2.21 3.49 2.21 3.49 2.58 2.04 2.58 2.04 2.21" style="fill:#adab9d"/><polygon points="1.62 0.57 1.62 1.39 1.62 1.59 1.45 1.59 0.59 1.59 0.59 1.22 1.25 1.22 1.25 0.57 1.62 0.57" style="fill:#adab9d"/><polygon points="2.86 0.57 2.86 1.39 2.86 1.59 2.69 1.59 1.84 1.59 1.84 1.22 2.52 1.22 2.52 0.57 2.86 0.57" style="fill:#adab9d"/><polygon points="4.37 1.59 3.12 1.59 3.12 1.22 4.37 1.22 4.37 1.59" style="fill:#adab9d"/><path d="M8.59,7.51a.69.69,0,0,1,.48.2h0a.67.67,0,0,1,.2.48.58.58,0,0,1-.2.48.55.55,0,0,1-.48.2.63.63,0,0,1-.48-.2h0a.65.65,0,0,1-.2-.48h.37a.36.36,0,0,0,.08.23h0a.34.34,0,0,0,.23.11.36.36,0,0,0,.23-.11.38.38,0,0,0,.11-.23A.36.36,0,0,0,8.82,8h0a.33.33,0,0,0-.23-.09Z" transform="translate(-4.51 -5.3)" style="fill:#adab9d"/></g></g></svg>