<svg id="Layer_1" data-name="Layer 1" xmlns="http://www.w3.org/2000/svg" viewBox="0 0 19.33 10.94"><title>traslados carrusel</title><g id="Layer_1-2" data-name="Layer_1"><g id="_1713091771792" data-name=" 1713091771792"><path d="M16.07,4.05A4.94,4.94,0,1,1,11.14,9,4.94,4.94,0,0,1,16.07,4.05Z" transform="translate(-1.67 -3.03)" style="fill:#99d1ef;fill-rule:evenodd"/><path d="M5.16,12.36h-2a1.43,1.43,0,0,1-1-.43h0a1.43,1.43,0,0,1-.43-1V4.48a1.43,1.43,0,0,1,.43-1h0a1.43,1.43,0,0,1,1-.43H13.38a2.56,2.56,0,0,1,1,.2,1.82,1.82,0,0,1,.74.68h0l2,2.92a2.66,2.66,0,0,1,.46.88,3.59,3.59,0,0,1,.08,1v2.21a1.46,1.46,0,0,1-.42,1h0a1.46,1.46,0,0,1-1,.43v-.57a1,1,0,0,0,.62-.25h0a1,1,0,0,0,.26-.63V8.7A3.35,3.35,0,0,0,17,7.85a3,3,0,0,0-.37-.71l-2-2.92h0a1.5,1.5,0,0,0-.54-.48,1.87,1.87,0,0,0-.71-.14H3.12a.93.93,0,0,0-.63.26h0a.86.86,0,0,0-.25.62v6.43a.88.88,0,0,0,.25.63h0a1,1,0,0,0,.63.25h2Zm9.33,0H6.77v-.57h7.72Z" transform="translate(-1.67 -3.03)" style="fill:gray"/><path d="M5.16,10.18a1.82,1.82,0,0,1,1.33.53h0a2,2,0,0,1,.54,1.37,1.88,1.88,0,0,1-.54,1.33h0A2,2,0,0,1,5.16,14a1.9,1.9,0,0,1-1.33-.56h0a1.91,1.91,0,0,1-.57-1.33h.57a1.26,1.26,0,0,0,.39.93h0a1.35,1.35,0,0,0,.94.4,1.31,1.31,0,0,0,.93-.4h0a1.29,1.29,0,0,0,0-1.87h0a1.24,1.24,0,0,0-.93-.4Z" transform="translate(-1.67 -3.03)" style="fill:gray"/><polygon points="6.24 7.14 10.88 7.14 10.88 7.71 6.24 7.71 6.24 7.14" style="fill:gray"/><polygon points="4.56 1.53 4.56 4.22 4.56 4.51 4.28 4.51 1.62 4.51 1.62 3.94 4 3.94 4 1.53 4.56 1.53" style="fill:gray"/><polygon points="8.59 1.53 8.59 4.22 8.59 4.51 8.31 4.51 5.64 4.51 5.64 3.94 8.02 3.94 8.02 1.53 8.59 1.53" style="fill:gray"/><polygon points="13.69 4.51 9.64 4.51 9.64 3.94 13.69 3.94 13.69 4.51" style="fill:gray"/><path d="M14.49,10.18a1.87,1.87,0,0,1,1.33.53h0a2,2,0,0,1,.56,1.37,1.9,1.9,0,0,1-.56,1.33h0a1.9,1.9,0,0,1-1.33.56,2,2,0,0,1-1.37-.56h0a1.87,1.87,0,0,1-.53-1.33h.56a1.23,1.23,0,0,0,.4.93h0a1.49,1.49,0,0,0,1,.4,1.39,1.39,0,0,0,.93-.4h0a1.29,1.29,0,0,0,0-1.87h0a1.3,1.3,0,0,0-.93-.4Z" transform="translate(-1.67 -3.03)" style="fill:gray"/></g></g></svg>