<svg id="Layer_1" data-name="Layer 1" xmlns="http://www.w3.org/2000/svg" viewBox="0 0 20.08 12.13"><title>vuelos carrusel</title><g id="Layer_1-2" data-name="Layer_1"><g id="_1713091473936" data-name=" 1713091473936"><path d="M11.23,3.26A4.93,4.93,0,1,1,6.29,8.19,4.93,4.93,0,0,1,11.23,3.26Z" transform="translate(-1.3 -2.44)" style="fill:#5cbbf2;fill-rule:evenodd"/><path d="M13.12,9.84l6.44-1.73c.76-.2,1.13-.6,1.22-1h0a.86.86,0,0,0,0-.45,1.11,1.11,0,0,0-.2-.37A1.27,1.27,0,0,0,19.22,6h0L14.57,7.23l-.14,0-.12-.09L8.93,3.06l-1.11.28,2.55,4.57.17.31-.34.11L4.71,9.81l-.12,0-.11-.09L2.38,8.14l-.23.08,2.22,3.94,6.94-1.87.51-.11-.14.48-1,3.09.65-.17,2.8-3.43-.87.22ZM19.7,8.65,15.05,9.89,11.74,14l-.06.09-.09,0-1.27.31-.48.14.14-.48L11,11,4.28,12.76l-.2.05L4,12.61,1.47,8.16,1.3,7.85l.34-.08.74-.2.11,0,.12.09,2.1,1.58,5-1.33L7.14,3.32,7,3l.34-.09,1.62-.42.11,0,.12.08,5.38,4.11,4.54-1.19h0A1.88,1.88,0,0,1,21,5.9a2.08,2.08,0,0,1,.34.62,1.42,1.42,0,0,1,0,.71h0A2.06,2.06,0,0,1,19.7,8.65Z" transform="translate(-1.3 -2.44)" style="fill:gray"/></g></g></svg>