<svg id="Layer_1" data-name="Layer 1" xmlns="http://www.w3.org/2000/svg" viewBox="0 0 6.58 4.08"><title>vuelos</title><g id="Layer_1-2" data-name="Layer_1"><path d="M8.19,7.29l1.5-.43h0c.2-.06.29-.14.32-.26h0V6.52s0-.06,0-.09a.36.36,0,0,0-.34-.08h0l-1.48.4-.08,0L8,6.72,6.32,5.44l-.2.06.77,1.33L7,7l-.23.08-1.72.46L5,7.6l-.08-.06-.46-.37.51,1,2.16-.6.31-.08-.09.31L7,8.62l0,0,1-1.25.06,0ZM9.78,7.2l-1.45.4-1,1.27,0,.06H7.2L6.8,9l-.31.09.11-.31L6.86,8l-2,.51-.14,0,0-.11L3.91,7,3.8,6.8l.23,0,.22-.06.09,0,0,.06L5,7.2l1.44-.4L5.7,5.47l-.12-.2.23,0,.51-.15.09,0,0,0L8.14,6.38,9.55,6h0a.67.67,0,0,1,.68.17.48.48,0,0,1,.12.25,1.14,1.14,0,0,1,0,.26h0a.73.73,0,0,1-.59.51Z" transform="translate(-3.8 -5.05)" style="fill:#adab9d"/></g></svg>