<svg id="Layer_1" data-name="Layer 1" xmlns="http://www.w3.org/2000/svg" viewBox="0 0 5.36 5.07"><g id="Layer_1-2" data-name="Layer_1"><g id="_2460851957904" data-name=" 2460851957904"><path d="M7.11,4.59l2.61,1.5c.09.06.09.17,0,.2L7.11,7.8c-.08,0-.17,0-.17-.12v-3a.13.13,0,0,1,.2-.09Zm.18.48V7.31l1.92-1.1L7.29,5.1Z" transform="translate(-4.42 -4.57)" style="fill:#e02418"/><path d="M8,5.67,8.08,6h.31A.06.06,0,0,1,8.45,6s0,0,0,0l-.26.19.09.32s0,0,0,0h0l-.25-.2-.26.2s0,0,0,0v0l.08-.31-.25-.2s0,0,0,0l0,0H7.8l.08-.31s0,0,.06,0l0,0Z" transform="translate(-4.42 -4.57)" style="fill:#e02418;fill-rule:evenodd"/><path d="M8.22,7.34v.8a.1.1,0,0,0,.06,0,.11.11,0,0,0,0-.09V7.31h0l.34-.2V8a.45.45,0,0,1-.15.34.43.43,0,0,1-.34.14h0c0,.06-.06.09-.09.15a1.61,1.61,0,0,1-.4.42,1.56,1.56,0,0,1-.45.26v.31H5.87V8.76H7.2v.17h0c.09-.06.17-.09.23-.14a2.5,2.5,0,0,0,.31-.34.75.75,0,0,1,.08-.14V7.57l.34-.2ZM6.89,9.13V9.07H6.24v.17h.65V9.13Zm-.14-3-.2,0a1.55,1.55,0,0,0-.8.22,1.35,1.35,0,0,0-.53.6V8.45H4.9A.48.48,0,0,1,4.42,8v-.8a.48.48,0,0,1,.48-.48h0A1.79,1.79,0,0,1,5.56,6a1.91,1.91,0,0,1,1-.28h.2v.36Zm-1.9,2V7a.1.1,0,0,0-.06,0,.09.09,0,0,0,0,.08v.8a.22.22,0,0,0,0,.08.09.09,0,0,0,.06,0Z" transform="translate(-4.42 -4.57)" style="fill:#adab9d"/><path d="M7.88,7.54v.94h.31a.45.45,0,0,0,.34-.15A.43.43,0,0,0,8.67,8v-.9l0,0-.06,0-.06,0,0,0-.06,0-.06,0h0V8a.34.34,0,0,1,0,.08.06.06,0,0,1-.05,0V7.29h0l-.09,0-.08.06L8,7.43l-.08.05h0Z" transform="translate(-4.42 -4.57)" style="fill:#b2b3b3"/></g></g></svg>