<svg id="Layer_1" data-name="Layer 1" xmlns="http://www.w3.org/2000/svg" viewBox="0 0 4.37 4.22"><g id="Layer_1-2" data-name="Layer_1"><g id="_2460740786016" data-name=" 2460740786016"><path d="M8.7,7.23v.48a.1.1,0,0,0,.06,0,.09.09,0,0,0,0-.08V7.2a1.38,1.38,0,0,0,.34-.28V7.6a.48.48,0,0,1-.48.48h0c0,.06-.06.08-.09.14a2,2,0,0,1-.39.43,1.72,1.72,0,0,1-.46.25v.31H6.35V8.33H7.68V8.5h0a1,1,0,0,0,.23-.14A1.45,1.45,0,0,0,8.22,8a.85.85,0,0,1,.09-.14V7.37l.34-.08ZM7.37,8.7v0H6.72v.17h.65V8.7Zm-.4-3a1.18,1.18,0,0,0-.73.23,1.34,1.34,0,0,0-.54.59V8.05H5.39a.5.5,0,0,1-.49-.48v-.8a.5.5,0,0,1,.49-.48h0A1.87,1.87,0,0,1,6,5.61a1.91,1.91,0,0,1,1-.28h.11A1.08,1.08,0,0,0,7,5.67Zm-1.64,2V6.63a.1.1,0,0,0-.06,0,.11.11,0,0,0,0,.09v.79a.3.3,0,0,0,0,.09l.06,0Z" transform="translate(-4.9 -4.99)" style="fill:#adab9d"/><path d="M8.19,5A1.08,1.08,0,1,1,7.11,6.07,1.08,1.08,0,0,1,8.19,5Z" transform="translate(-4.9 -4.99)" style="fill:#e02418;fill-rule:evenodd"/><path d="M8.25,6.86v-.2a.34.34,0,0,0,.31-.34c0-.17-.11-.28-.31-.34S8,5.87,8,5.75a.18.18,0,0,1,.2-.17,2.07,2.07,0,0,1,.26.06l0-.11a.51.51,0,0,0-.25-.06v-.2H8.16v.2a.31.31,0,0,0-.28.31c0,.17.11.26.31.34s.23.12.23.23a.21.21,0,0,1-.23.2.45.45,0,0,1-.28-.09l-.06.14a.42.42,0,0,0,.29.09v.2h.11Z" transform="translate(-4.9 -4.99)" style="fill:#fefefe"/></g></g></svg>