<svg id="Layer_1" data-name="Layer 1" xmlns="http://www.w3.org/2000/svg" viewBox="0 0 5.78 5.78"><g id="Layer_1-2" data-name="Layer_1"><g id="_2460863210240" data-name=" 2460863210240"><polygon points="3.4 3.4 1.02 4.76 2.38 2.38 3.4 3.4" style="fill:#007bc3;fill-rule:evenodd"/><polygon points="3.4 3.4 4.76 1.02 2.38 2.38 3.4 3.4" style="fill:#e02418;fill-rule:evenodd"/><path d="M10,7.09,8.65,6.32a1.84,1.84,0,0,1,.17.77,1.7,1.7,0,0,1-.17.76ZM7.09,4.2l.76,1.33a1.66,1.66,0,0,0-.76-.17,1.62,1.62,0,0,0-.77.17ZM4.2,7.09l1.33-.77a1.7,1.7,0,0,0-.17.77,1.58,1.58,0,0,0,.17.76ZM7.09,10l.76-1.33a1.8,1.8,0,0,1-.76.17,1.74,1.74,0,0,1-.77-.17Z" transform="translate(-4.2 -4.2)" style="fill:#adab9d;fill-rule:evenodd"/></g></g></svg>