<svg id="Layer_1" data-name="Layer 1" xmlns="http://www.w3.org/2000/svg" viewBox="0 0 4.62 4.71"><g id="Layer_1-2" data-name="Layer_1"><g id="_2424537120672" data-name=" 2424537120672"><path d="M9.41,4.73V7.09H7.46V4.73ZM8.05,6.12h.77v.23H8.05Zm0-.42h.77v.22H8.05Zm0-.43h.77V5.5H8.05ZM9.16,5H7.68V6.86H9.16Z" transform="translate(-4.79 -4.73)" style="fill:#e02418"/><path d="M8.59,7.29v.65a.1.1,0,0,0,.06,0,.15.15,0,0,0,0-.09V7.29H9v.53a.43.43,0,0,1-.14.34.45.45,0,0,1-.34.15h0s-.05.08-.08.14a1.79,1.79,0,0,1-.4.42,1.36,1.36,0,0,1-.45.26v.31H6.24V8.56H7.57v.17h0a2.32,2.32,0,0,0,.23-.14,2.5,2.5,0,0,0,.31-.34.58.58,0,0,1,.08-.14v-.8h.34ZM7.26,9V8.9H6.6v.17h.66V9Zm0-3a1.34,1.34,0,0,0-.34,0,1.56,1.56,0,0,0-.8.23,1.43,1.43,0,0,0-.54.6V8.31H5.27a.5.5,0,0,1-.48-.49V7a.48.48,0,0,1,.14-.34.46.46,0,0,1,.34-.14h0a1.77,1.77,0,0,1,.62-.68,2,2,0,0,1,1-.29,1.34,1.34,0,0,1,.34,0Zm-2,2V6.86s0,0,0,0a.09.09,0,0,0,0,.08v.8a.22.22,0,0,0,0,.08s0,0,0,0Z" transform="translate(-4.79 -4.73)" style="fill:#adab9d"/></g></g></svg>