<svg id="Layer_1" data-name="Layer 1" xmlns="http://www.w3.org/2000/svg" viewBox="0 0 4.48 4.59"><g id="Layer_1-2" data-name="Layer_1"><g id="_2460872122256" data-name=" 2460872122256"><path d="M8.65,7.29v.62s0,0,0,0a.1.1,0,0,0,0-.08V7.23A.85.85,0,0,0,9,7l0,0h0v.8a.48.48,0,0,1-.48.48h0c0,.06-.06.09-.08.14a2.37,2.37,0,0,1-.4.43A1.33,1.33,0,0,1,7.63,9v.31H6.29V8.48H7.63v.17h0a1.39,1.39,0,0,0,.22-.15,1.26,1.26,0,0,0,.31-.34A.85.85,0,0,1,8.25,8V7.34a1.5,1.5,0,0,0,.34-.11ZM7.31,8.93V8.87H6.66V9h.65V8.93Zm-.65-3a1.57,1.57,0,0,0-.48.2,1.31,1.31,0,0,0-.54.6V8.28H5.33A.48.48,0,0,1,5,8.14a.46.46,0,0,1-.14-.34V7A.46.46,0,0,1,5,6.66a.48.48,0,0,1,.34-.14h0A1.85,1.85,0,0,1,6,5.84a1.82,1.82,0,0,1,.74-.26A1.43,1.43,0,0,0,6.66,6Zm-1.39,2V6.86a.07.07,0,0,0,0,0,.09.09,0,0,0,0,.08v.8a.22.22,0,0,0,0,.08.06.06,0,0,0,0,0Z" transform="translate(-4.85 -4.76)" style="fill:#adab9d"/><path d="M8.08,4.76A1.24,1.24,0,0,1,9,5.13,1.24,1.24,0,1,1,7.2,6.89a1.25,1.25,0,0,1,.88-2.13Zm-1,1.11h.43a2.47,2.47,0,0,1,.11-.68l0-.06a1.27,1.27,0,0,0-.31.2.94.94,0,0,0-.28.54Zm.69,0h.56a2.89,2.89,0,0,0-.08-.57h0c-.06-.14-.12-.23-.17-.23s-.12.09-.17.23h0a1.51,1.51,0,0,0-.09.57Zm.82,0H9a1,1,0,0,0-.28-.54.75.75,0,0,0-.31-.2l0,.06a2.47,2.47,0,0,1,.11.68Zm-.71.88C8,6.89,8,7,8.08,7s.11-.08.17-.22h0a1.67,1.67,0,0,0,.08-.57H7.77a3.12,3.12,0,0,0,.08.59h0Zm-.8-.6a1,1,0,0,0,.29.57.79.79,0,0,0,.31.2l0-.06a2.79,2.79,0,0,1-.11-.71H7.11Zm1.34.77a1.65,1.65,0,0,0,.31-.2A1,1,0,0,0,9,6.15H8.62a2.39,2.39,0,0,1-.12.71.13.13,0,0,1,0,.06Z" transform="translate(-4.85 -4.76)" style="fill:#007bc3"/></g></g></svg>