<svg id="Layer_1" data-name="Layer 1" xmlns="http://www.w3.org/2000/svg" viewBox="0 0 4.28 4.34"><g id="Layer_1-2" data-name="Layer_1"><g id="_2460875154096" data-name=" 2460875154096"><path d="M8.5,8.39a1.85,1.85,0,0,1-.28.28,1.36,1.36,0,0,1-.45.26v.31H6.43V8.36H7.8v.17h0A.93.93,0,0,0,8,8.39l0,0h.48Zm-1.07.4V8.73H6.77V8.9h.66V8.79Zm-.34-3h0a1.56,1.56,0,0,0-.8.23,1.35,1.35,0,0,0-.53.6V8.14H5.41a.5.5,0,0,1-.48-.49V6.86a.48.48,0,0,1,.14-.34.46.46,0,0,1,.34-.14h0a1.72,1.72,0,0,1,.63-.68,1.92,1.92,0,0,1,1-.29h0ZM5.39,7.8V6.72a.1.1,0,0,0-.06,0,.08.08,0,0,0,0,.08v.8a.34.34,0,0,0,0,.08.09.09,0,0,0,.06,0Z" transform="translate(-4.93 -4.9)" style="fill:#adab9d"/><path d="M7.6,4.9H8.82A.5.5,0,0,1,9.1,5a.37.37,0,0,1,.11.28V7.82a.49.49,0,0,1-.11.29.38.38,0,0,1-.28.11H7.6a.57.57,0,0,1-.29-.11.39.39,0,0,1-.11-.29V5.3A.54.54,0,0,1,7.31,5,.36.36,0,0,1,7.6,4.9Zm0,2.67H8.84V5.27H7.57v2.3Z" transform="translate(-4.93 -4.9)" style="fill:#e02418"/><path d="M8.28,7.23V7a.34.34,0,0,0,.31-.34c0-.17-.11-.28-.31-.34s-.23-.11-.23-.23A.18.18,0,0,1,8.25,6,1.53,1.53,0,0,1,8.5,6l.06-.11a.54.54,0,0,0-.25-.06v-.2H8.19v.2a.31.31,0,0,0-.28.31c0,.17.11.26.31.34s.23.11.23.23a.21.21,0,0,1-.23.2.45.45,0,0,1-.28-.09L7.88,7a.41.41,0,0,0,.28.09v.2h.12Z" transform="translate(-4.93 -4.9)" style="fill:#e02418"/></g></g></svg>