<svg id="Layer_1" data-name="Layer 1" xmlns="http://www.w3.org/2000/svg" viewBox="0 0 3.8 3.8"><g id="Layer_1-2" data-name="Layer_1"><g id="_2460734073008" data-name=" 2460734073008"><path d="M7.09,5.19a1.9,1.9,0,1,1-1.9,1.9A1.9,1.9,0,0,1,7.09,5.19Z" transform="translate(-5.19 -5.19)" style="fill:#e02418;fill-rule:evenodd"/><path d="M7.29,7.43a.15.15,0,0,1,0-.09A.85.85,0,0,1,7.51,7c.17-.17.34-.31.34-.56S7.65,6,7.37,6a.86.86,0,0,0-.51.14l.06.31a.59.59,0,0,1,.31-.08c.14,0,.17,0,.17.14s-.11.2-.23.34a.73.73,0,0,0-.25.51v.09h.42ZM7,8.11a.28.28,0,0,0,.29-.29A.26.26,0,0,0,7,7.57a.29.29,0,0,0-.28.31.23.23,0,0,0,.22.26h0Z" transform="translate(-5.19 -5.19)" style="fill:#fefefe"/></g></g></svg>