<svg id="Layer_1" data-name="Layer 1" xmlns="http://www.w3.org/2000/svg" viewBox="0 0 4.25 4.28"><g id="Layer_1-2" data-name="Layer_1"><g id="_2460497990512" data-name=" 2460497990512"><path d="M8.76,6.66V7.74a.1.1,0,0,0,.06,0,.13.13,0,0,0,0-.08v-.8a.29.29,0,0,0,0-.08.09.09,0,0,0-.06,0ZM7.43,8.76V8.7H6.77v.17h.66V8.76Zm.34-.23h0A.93.93,0,0,0,8,8.39a1.72,1.72,0,0,0,.32-.34.37.37,0,0,1,.08-.14V6.55a1.38,1.38,0,0,0,.31-.2h0a.48.48,0,0,1,.34.14.46.46,0,0,1,.14.34v.8A.46.46,0,0,1,9.07,8a.48.48,0,0,1-.34.14h0l-.08.14a2,2,0,0,1-.4.42,1.36,1.36,0,0,1-.45.26v.31H6.43V8.36H7.77ZM7.14,5.7h0a1.55,1.55,0,0,0-.8.22,1.5,1.5,0,0,0-.54.6V8.08H5.44A.48.48,0,0,1,5,7.6V6.8a.48.48,0,0,1,.48-.48h0a1.85,1.85,0,0,1,.62-.68,2,2,0,0,1,1-.28H7.2a.94.94,0,0,0-.06.28Zm-1.75,2V6.66a.1.1,0,0,0-.06,0,.1.1,0,0,0,0,.08v.8a.22.22,0,0,0,0,.08.09.09,0,0,0,.06,0Z" transform="translate(-4.96 -4.96)" style="fill:#adab9d"/><circle cx="3.12" cy="0.68" r="0.68" style="fill:#007bc3"/></g></g></svg>