<svg id="Layer_1" data-name="Layer 1" xmlns="http://www.w3.org/2000/svg" viewBox="0 0 5.15 3.45"><g id="Layer_1-2" data-name="Layer_1"><g id="_2460852791792" data-name=" 2460852791792"><polygon points="0.17 0.17 4.99 0.17 4.99 3.29 0.17 3.29 0.17 0.17" style="fill:none;stroke:#adab9d;stroke-miterlimit:10;stroke-width:0.3359055213729931px"/><path d="M7.09,6.15a.52.52,0,0,0-.51.57.52.52,0,0,0,.51.57.54.54,0,0,0,.51-.6.48.48,0,0,0-.49-.54h0Zm0,.23c.14,0,.2.14.2.34s-.06.34-.18.34-.19-.14-.19-.34,0-.34.19-.34h0Zm.25,1.67,1.05-1.9H8.16L7.09,8.05h.25ZM8.45,6.92a.52.52,0,0,0-.51.56.52.52,0,0,0,.51.57A.53.53,0,0,0,9,7.46a.47.47,0,0,0-.48-.54h0Zm0,.22c.14,0,.17.15.17.34s-.06.34-.17.34-.2-.14-.2-.34.06-.34.2-.34Z" transform="translate(-4.51 -5.36)" style="fill:#007bc3"/><line x1="1.42" y1="0.22" x2="1.42" y2="3.23" style="fill:none;stroke:#adab9d;stroke-miterlimit:10;stroke-width:0.3359055213729931px;stroke-dasharray:0.335905522108078,0.335905522108078"/></g></g></svg>