<svg id="Layer_1" data-name="Layer 1" xmlns="http://www.w3.org/2000/svg" viewBox="0 0 3.8 3.91"><g id="Layer_1-2" data-name="Layer_1"><g id="_2460503377584" data-name=" 2460503377584"><path d="M5.64,8.45l-.45-.8.54-.31v0a.89.89,0,0,1,0-.28.77.77,0,0,1,0-.26h0l-.54-.31.45-.79L6.18,6h0a1.36,1.36,0,0,1,.45-.26h0V5.16h.91v.62h0A1.36,1.36,0,0,1,8,6l.54-.31L9,6.52l-.54.31a.77.77,0,0,1,0,.26.89.89,0,0,1,0,.28h0L9,7.68l-.46.8L8,8.16H8a1.58,1.58,0,0,1-.48.29h0v.62H6.6V8.45h0a1.58,1.58,0,0,1-.48-.29v0l-.54.31ZM7.11,6.32a.77.77,0,1,1-.76.77A.76.76,0,0,1,7.11,6.32Z" transform="translate(-5.19 -5.16)" style="fill:#007bc3;fill-rule:evenodd"/><path d="M7.09,6.32a.77.77,0,1,1-.77.77A.76.76,0,0,1,7.09,6.32Z" transform="translate(-5.19 -5.16)" style="fill:#007bc3;stroke:#b2b3b3;stroke-miterlimit:10;stroke-width:0.21599999595134278px;fill-rule:evenodd"/></g></g></svg>