<svg id="Layer_1" data-name="Layer 1" xmlns="http://www.w3.org/2000/svg" viewBox="0 0 5.39 3.6"><g id="Layer_1-2" data-name="Layer_1"><g id="_2424631489840" data-name=" 2424631489840"><path d="M5.44,8.82v-.2h.37v.2Zm.14-1.31a2.46,2.46,0,0,1,.17-.22,1.16,1.16,0,0,1,.8-.35h.11a.46.46,0,0,1-.2-.14.83.83,0,0,1-.25-.62.81.81,0,0,1,.25-.62.88.88,0,0,1,1.25,0A.82.82,0,0,1,8,6.18a.84.84,0,0,1-.26.62.61.61,0,0,1-.2.14h.12a1.15,1.15,0,0,1,1,.57H8.16a.75.75,0,0,0-.53-.2h-1a.91.91,0,0,0-.53.2H5.58ZM8.73,8.62v.2H8.36v-.2ZM7.46,5.81a.58.58,0,0,0-.37-.14.54.54,0,0,0-.37.14.56.56,0,0,0,0,.74.54.54,0,0,0,.37.14.58.58,0,0,0,.37-.14.56.56,0,0,0,0-.74Z" transform="translate(-4.39 -5.3)" style="fill:#adab9d"/><polygon points="5.39 3.06 4.56 2.49 2.95 2.49 2.95 3.6 4.56 3.6 5.39 3.06" style="fill:#e02418;fill-rule:evenodd"/><polygon points="0 3.06 0.82 2.49 2.44 2.49 2.44 3.6 0.82 3.6 0 3.06" style="fill:#007bc3;fill-rule:evenodd"/></g></g></svg>