<svg id="Layer_1" data-name="Layer 1" xmlns="http://www.w3.org/2000/svg" viewBox="0 0 4.14 3.86"><g id="Layer_1-2" data-name="Layer_1"><g id="_2460503411600" data-name=" 2460503411600"><path d="M9.16,5.16V7.51h-2V5.16ZM7.8,6.55h.76v.22H7.8Zm0-.43h.76v.23H7.8Zm0-.42h.76v.22H7.8Zm1.1-.29H7.43V7.29H8.9Z" transform="translate(-5.02 -5.16)" style="fill:#e02418"/><path d="M5,9V8.25a1,1,0,0,1,.34-.79,1.14,1.14,0,0,1,.79-.35h.11A.38.38,0,0,1,6.07,7a.84.84,0,0,1-.26-.62.89.89,0,0,1,.88-.88A.94.94,0,0,1,7,5.53v.39a.51.51,0,0,0-.28-.08.48.48,0,0,0-.51.51.48.48,0,0,0,.51.51A.45.45,0,0,0,7,6.77v.71H6.18a.79.79,0,0,0-.77.77V9H5ZM8.14,7.68a1.37,1.37,0,0,1,.14.57V9H7.91V8.25a.78.78,0,0,0-.23-.54l0,0h.49Z" transform="translate(-5.02 -5.16)" style="fill:#adab9d"/></g></g></svg>