<svg id="Layer_1" data-name="Layer 1" xmlns="http://www.w3.org/2000/svg" viewBox="0 0 3.69 3.57"><g id="Layer_1-2" data-name="Layer_1"><g id="_2460819618336" data-name=" 2460819618336"><path d="M5.24,8.84V8.08a1,1,0,0,1,.34-.79,1.16,1.16,0,0,1,.8-.35h.11a.46.46,0,0,1-.2-.14A.83.83,0,0,1,6,6.18a.81.81,0,0,1,.25-.62.88.88,0,0,1,1.25,0,.82.82,0,0,1,.26.62.84.84,0,0,1-.26.62.61.61,0,0,1-.2.14h.12a.49.49,0,0,1,.22,0l-.37.34h-.9a.79.79,0,0,0-.77.77v.76h-.4ZM8.05,7.17a1.93,1.93,0,0,1,.2.17L8,7.6a.79.79,0,0,0-.19-.17Zm.43.54a1,1,0,0,1,0,.4v.76H8.16V8ZM7.29,5.84a.53.53,0,0,0-.37-.14.5.5,0,0,0-.37.14.51.51,0,0,0-.14.37.53.53,0,0,0,.14.37.54.54,0,0,0,.37.14.58.58,0,0,0,.37-.14.58.58,0,0,0,.14-.37A.56.56,0,0,0,7.29,5.84Z" transform="translate(-5.24 -5.3)" style="fill:#adab9d"/><path d="M8.65,6.49l.28.28C6.86,8.73,8.7,7,6.86,8.7L6,7.88l.28-.28.6.56C7.46,7.6,4.88,10,8.65,6.49Z" transform="translate(-5.24 -5.3)" style="fill:#007bc3"/></g></g></svg>