<svg id="Layer_1" data-name="Layer 1" xmlns="http://www.w3.org/2000/svg" viewBox="0 0 4.48 4.14"><g id="Layer_1-2" data-name="Layer_1"><g id="_2460851980144" data-name=" 2460851980144"><path d="M4.85,9.16V8.39a1,1,0,0,1,.34-.79A1.13,1.13,0,0,1,6,7.26h.11a.47.47,0,0,1-.19-.15.82.82,0,0,1-.26-.62.84.84,0,0,1,.26-.62.82.82,0,0,1,.62-.26.65.65,0,0,1,.4.12,1.51,1.51,0,0,0-.06.36v0a.56.56,0,0,0-.74,0,.56.56,0,0,0,0,.74.56.56,0,0,0,.74,0A.55.55,0,0,0,7,6.69,2.26,2.26,0,0,0,7.2,7l-.09.08a.83.83,0,0,1-.19.15H7a1,1,0,0,1,.79.34,1.13,1.13,0,0,1,.34.79v.77H7.8V8.39a.78.78,0,0,0-.23-.54A.77.77,0,0,0,7,7.63H6a.77.77,0,0,0-.54.22.78.78,0,0,0-.23.54v.77H4.85Z" transform="translate(-4.85 -5.02)" style="fill:#adab9d"/><path d="M8.25,5A1.08,1.08,0,1,1,7.17,6.09,1.08,1.08,0,0,1,8.25,5Z" transform="translate(-4.85 -5.02)" style="fill:#e02418;fill-rule:evenodd"/><path d="M8.31,6.89v-.2a.34.34,0,0,0,.31-.34c0-.17-.12-.28-.31-.34s-.23-.11-.23-.23a.18.18,0,0,1,.2-.17,1.53,1.53,0,0,1,.25.06l.06-.11a.55.55,0,0,0-.26-.06V5.3H8.22v.2a.31.31,0,0,0-.28.31c0,.17.11.26.31.34s.23.11.23.23a.21.21,0,0,1-.23.2A.45.45,0,0,1,8,6.49l-.06.14a.41.41,0,0,0,.28.09v.2h.12Z" transform="translate(-4.85 -5.02)" style="fill:#fefefe"/></g></g></svg>