<svg id="Layer_1" data-name="Layer 1" xmlns="http://www.w3.org/2000/svg" viewBox="0 0 4.62 4.08"><g id="Layer_1-2" data-name="Layer_1"><g id="_2460503408240" data-name=" 2460503408240"><path d="M4.76,9.1V8.33a1,1,0,0,1,.34-.79,1.13,1.13,0,0,1,.8-.34H6a.6.6,0,0,1-.2-.14.91.91,0,0,1,0-1.25.83.83,0,0,1,.62-.25,1,1,0,0,1,.29.05V6a.48.48,0,0,0-.29-.09.51.51,0,0,0-.51.51.5.5,0,0,0,.15.37.49.49,0,0,0,.36.14.47.47,0,0,0,.29-.08v.71h-.8a.79.79,0,0,0-.76.76V9.1h-.4Z" transform="translate(-4.76 -5.02)" style="fill:#adab9d"/><path d="M8.05,9.1V8.33A1.29,1.29,0,0,0,8,7.88H7.54a.73.73,0,0,1,.14.45V9.1Z" transform="translate(-4.76 -5.02)" style="fill:#adab9d"/><path d="M7.46,7.26h.65V5.87H7.46ZM8,5.13l.28.2.28-.23s.06,0,.09,0,.05,0,.11,0A.33.33,0,0,1,9,5.13a.39.39,0,0,1,.11.26.17.17,0,0,1,0,.11h.31v2H7.09v-2H7.4s0-.09,0-.11a.36.36,0,0,1,.06-.2.28.28,0,0,1,.14-.12A.55.55,0,0,1,7.74,5a.73.73,0,0,1,.2.05h0Zm.17.4L7.85,5.3s0,0,0,0H7.74s0,0-.06,0,0,0,0,.06a.09.09,0,0,0,0,.08.09.09,0,0,0,.06,0h.37ZM8.7,5.3l-.28.23h.37s.05,0,.05,0a.11.11,0,0,0,0-.09.1.1,0,0,0,0-.08.08.08,0,0,0-.08,0H8.7ZM8.45,7.23H9.1V5.84H8.45Z" transform="translate(-4.76 -5.02)" style="fill:#e02418"/></g></g></svg>