<svg id="Layer_1" data-name="Layer 1" xmlns="http://www.w3.org/2000/svg" viewBox="0 0 4.37 4.08"><g id="Layer_1-2" data-name="Layer_1"><g id="_2460840479968" data-name=" 2460840479968"><path d="M4.9,9.13V8.36a1,1,0,0,1,.34-.79A1.15,1.15,0,0,1,6,7.23h.11A.72.72,0,0,1,6,7.09.91.91,0,0,1,6,5.84a.84.84,0,0,1,.63-.26A.6.6,0,0,1,7,5.7v.45s0,0,0-.06A.53.53,0,0,0,6.58,6a.54.54,0,0,0-.37.14.53.53,0,0,0-.14.37.51.51,0,0,0,.14.37A.5.5,0,0,0,6.58,7a.49.49,0,0,0,.36-.14s0,0,0-.06V7.6H6a.77.77,0,0,0-.54.22.8.8,0,0,0-.23.54v.77Zm3.29-.54v.54H7.82V8.59Z" transform="translate(-4.9 -5.05)" style="fill:#adab9d"/><path d="M7.65,5.05H8.87a.49.49,0,0,1,.29.11.37.37,0,0,1,.11.28V8a.57.57,0,0,1-.11.28.39.39,0,0,1-.29.11H7.65a.49.49,0,0,1-.28-.11A.38.38,0,0,1,7.26,8V5.44a.46.46,0,0,1,.11-.28A.35.35,0,0,1,7.65,5.05Zm0,2.66H8.9V5.41H7.63v2.3Z" transform="translate(-4.9 -5.05)" style="fill:#e02418"/><path d="M8.31,7.37v-.2a.34.34,0,0,0,.31-.34c0-.17-.12-.28-.31-.34s-.23-.11-.23-.23a.18.18,0,0,1,.2-.17,1.53,1.53,0,0,1,.25.06L8.59,6A.55.55,0,0,0,8.33,6v-.2H8.22V6a.31.31,0,0,0-.28.31c0,.17.11.26.31.34s.23.12.23.23a.21.21,0,0,1-.23.2A.45.45,0,0,1,8,7l-.06.14a.41.41,0,0,0,.28.09v.2h.12Z" transform="translate(-4.9 -5.05)" style="fill:#e02418"/></g></g></svg>