<svg id="Layer_1" data-name="Layer 1" xmlns="http://www.w3.org/2000/svg" viewBox="0 0 5.17 4.76"><g id="Layer_1-2" data-name="Layer_1"><g id="_2460503397232" data-name=" 2460503397232"><path d="M7,4.73,9.61,6.24c.08,0,.08.17,0,.19L7,7.94c-.08,0-.17,0-.17-.12v-3A.13.13,0,0,1,7,4.73Zm.17.49V7.46L9.1,6.35,7.17,5.24Z" transform="translate(-4.51 -4.71)" style="fill:#e02418"/><path d="M7.88,5.81,8,6.12h.31a.06.06,0,0,1,.05.06s0,0,0,0l-.26.2.09.31s0,0,0,0h0l-.26-.19-.25.19a0,0,0,0,1-.06,0v0l.09-.32-.26-.19s0,0,0-.06l0,0h.31l.09-.31s0,0,.05,0l0,0Z" transform="translate(-4.51 -4.71)" style="fill:#e02418;fill-rule:evenodd"/><path d="M4.51,9.47V8.7a1,1,0,0,1,.34-.79,1.13,1.13,0,0,1,.79-.34h.11a.55.55,0,0,1-.19-.14.88.88,0,0,1,0-1.25.82.82,0,0,1,.62-.26A.94.94,0,0,1,6.46,6v.4a.45.45,0,0,0-.28-.09.58.58,0,0,0-.37.14.58.58,0,0,0-.14.37.56.56,0,0,0,.14.37.53.53,0,0,0,.37.14.44.44,0,0,0,.28-.08v.71H5.67a.77.77,0,0,0-.54.22.8.8,0,0,0-.23.54v.77H4.51Z" transform="translate(-4.51 -4.71)" style="fill:#adab9d"/><path d="M7.8,9.47V8.7A1.18,1.18,0,0,0,7.57,8l-.31.17a.83.83,0,0,1,.2.51v.77H7.8Z" transform="translate(-4.51 -4.71)" style="fill:#adab9d"/></g></g></svg>