<svg id="Layer_1" data-name="Layer 1" xmlns="http://www.w3.org/2000/svg" viewBox="0 0 5.5 4.42"><g id="Layer_1-2" data-name="Layer_1"><g id="_2424537124800" data-name=" 2424537124800"><path d="M4.34,9.27V8.5a1,1,0,0,1,.34-.79,1.13,1.13,0,0,1,.79-.34h.11a.45.45,0,0,1-.19-.14A.88.88,0,0,1,5.39,6a.82.82,0,0,1,1-.14v.45a.53.53,0,0,0-.94.34A.54.54,0,0,0,6.41,7v.46h.14a1.19,1.19,0,0,1,.79.34,1.13,1.13,0,0,1,.34.79v.77H7.31V8.56A.77.77,0,0,0,7.09,8a.79.79,0,0,0-.54-.22h-1A.77.77,0,0,0,5,8a.78.78,0,0,0-.23.54v.77H4.39Z" transform="translate(-4.34 -4.9)" style="fill:#adab9d"/><rect x="2.38" width="3.12" height="2.15" rx="0.2" style="fill:#adab9d"/><rect x="2.38" y="1.3" width="3.12" height="0.48" style="fill:#007bc3"/><path d="M7.63,9.27V8.5A1.12,1.12,0,0,0,7.48,8H7a.72.72,0,0,1,.23.53v.77Z" transform="translate(-4.34 -4.9)" style="fill:#adab9d"/></g></g></svg>